<svg width="115" height="38" viewBox="0 0 115 38" fill="none" xmlns="http://www.w3.org/2000/svg">
<g clip-path="url(#clip0_109_54)">
<path d="M46.8078 16.4016C46.1152 16.4016 45.4614 16.269 44.8459 16.0043C44.231 15.7396 43.691 15.3739 43.2258 14.9084L44.1555 13.8125C44.5199 14.1685 44.9371 14.4563 45.4062 14.6753C45.8753 14.8943 46.3562 15.0043 46.8483 15.0043C47.4497 15.0043 47.9121 14.8723 48.2359 14.607C48.5591 14.3424 48.7213 13.9998 48.7213 13.5794C48.7213 13.269 48.6531 13.0201 48.5163 12.8328C48.3794 12.6454 48.1902 12.488 47.9487 12.3599C47.7071 12.2323 47.4312 12.0997 47.1215 11.9626L45.7272 11.3599C45.3989 11.2228 45.0779 11.0427 44.7637 10.8187C44.4495 10.5952 44.1893 10.3119 43.9843 9.96939C43.7794 9.62685 43.6769 9.20925 43.6769 8.71603C43.6769 8.18669 43.8182 7.71153 44.1009 7.2911C44.383 6.87124 44.775 6.53999 45.2767 6.29789C45.7779 6.05579 46.3472 5.93503 46.9852 5.93503C47.5776 5.93503 48.1379 6.04959 48.6666 6.27757C49.1948 6.50613 49.6465 6.8165 50.0198 7.20928L49.2134 8.2228C48.8941 7.94008 48.5551 7.7183 48.1953 7.55859C47.8349 7.39889 47.4317 7.31875 46.9857 7.31875C46.4666 7.31875 46.056 7.43501 45.7553 7.66807C45.4546 7.90114 45.3043 8.21378 45.3043 8.60655C45.3043 8.89887 45.3814 9.13871 45.5368 9.32606C45.6917 9.51342 45.8944 9.66861 46.145 9.79163C46.3956 9.91465 46.6529 10.0315 46.9176 10.1409L48.2984 10.7301C48.6993 10.8943 49.0546 11.0952 49.3649 11.3328C49.6746 11.5704 49.9162 11.8582 50.0896 12.1957C50.2625 12.5337 50.3492 12.9541 50.3492 13.4558C50.3492 13.9947 50.2079 14.4857 49.9252 14.9287C49.6425 15.3717 49.2371 15.7278 48.7083 15.997C48.1795 16.2661 47.5466 16.401 46.8084 16.401L46.8078 16.4016Z" fill="white"/>
<path d="M53.889 16.4016C53.4605 16.4016 53.0804 16.3102 52.7476 16.1273C52.4148 15.9445 52.153 15.6888 51.9615 15.3604C51.77 15.0314 51.6743 14.6482 51.6743 14.2097C51.6743 13.3971 52.0319 12.769 52.7476 12.326C53.4628 11.883 54.6042 11.5749 56.1719 11.4011C56.1629 11.1088 56.1173 10.8396 56.0351 10.593C55.9529 10.3464 55.8093 10.1477 55.6043 9.99706C55.3993 9.84638 55.1099 9.77076 54.736 9.77076C54.344 9.77076 53.9656 9.84864 53.6013 10.0038C53.2364 10.159 52.8906 10.3373 52.5623 10.5382L51.9745 9.46941C52.2386 9.30519 52.5302 9.14718 52.8495 8.99651C53.1683 8.84583 53.5101 8.72225 53.875 8.62687C54.2393 8.53094 54.6177 8.48297 55.0096 8.48297C55.6386 8.48297 56.1533 8.60882 56.5543 8.85994C56.9552 9.11107 57.2536 9.47449 57.4496 9.94909C57.6456 10.4243 57.7436 10.9993 57.7436 11.6754V16.2097H56.4585L56.3358 15.3469H56.2812C55.9438 15.6392 55.575 15.8881 55.1741 16.0935C54.7731 16.2989 54.3446 16.4016 53.889 16.4016ZM54.3671 15.1409C54.6954 15.1409 55.0006 15.0653 55.2833 14.9146C55.5654 14.7639 55.8622 14.5427 56.1719 14.2504V12.4146C55.4337 12.497 54.8458 12.6178 54.4082 12.7775C53.9707 12.9372 53.6587 13.1246 53.4718 13.339C53.2848 13.5534 53.1913 13.8029 53.1913 14.0856C53.1913 14.4603 53.3051 14.7295 53.5332 14.8937C53.7607 15.0579 54.0388 15.1403 54.3671 15.1403V15.1409Z" fill="white"/>
<path d="M59.9717 16.2097V8.66128H61.2567L61.3935 9.72955H61.4211C61.7494 9.38249 62.1025 9.08791 62.4804 8.84582C62.8582 8.60372 63.2845 8.48296 63.7586 8.48296C64.3144 8.48296 64.7565 8.60429 65.0848 8.84582C65.4131 9.08791 65.6591 9.4282 65.823 9.86612C66.1963 9.46432 66.5815 9.13306 66.9779 8.8729C67.3744 8.61275 67.8052 8.48239 68.2697 8.48239C69.0536 8.48239 69.6342 8.74029 70.0126 9.25608C70.3904 9.77244 70.5802 10.5094 70.5802 11.4688V16.2091H68.9945V11.6607C68.9945 11.0123 68.8942 10.549 68.6938 10.2702C68.4933 9.9914 68.1785 9.85257 67.7505 9.85257C67.4954 9.85257 67.2285 9.93497 66.9509 10.0992C66.6727 10.2634 66.3743 10.5196 66.0556 10.8667V16.2097H64.4833V11.6612C64.4833 11.0128 64.3831 10.5495 64.1826 10.2707C63.9822 9.99196 63.6635 9.85314 63.2259 9.85314C62.9798 9.85314 62.7152 9.93553 62.433 10.0997C62.1504 10.264 61.8542 10.5202 61.5445 10.8672V16.2103H59.9722L59.9717 16.2097Z" fill="white"/>
<path d="M72.8625 16.2097V5.29114H74.4072V12.3193H74.4618L77.3737 8.66129H79.1232L76.5808 11.7436L79.4104 16.2097H77.7019L75.6652 12.7984L74.4077 14.2504V16.2091H72.8631L72.8625 16.2097Z" fill="white"/>
<path d="M81.9259 16.2097L79.9026 8.66129H81.4883L82.4862 12.7436C82.5588 13.1087 82.6275 13.4676 82.6911 13.8192C82.7548 14.1708 82.8229 14.5291 82.8961 14.8948H82.9642C83.0369 14.5297 83.1123 14.1708 83.1895 13.8192C83.2666 13.4676 83.3511 13.1093 83.4423 12.7436L84.5089 8.66129H85.9578L87.0378 12.7436C87.129 13.1087 87.2158 13.4676 87.2974 13.8192C87.3796 14.1708 87.4613 14.5291 87.5435 14.8948H87.6116C87.6843 14.5297 87.7552 14.1708 87.8234 13.8192C87.8915 13.4676 87.9619 13.1093 88.0351 12.7436L89.0059 8.66129H90.4959L88.5413 16.2097H86.6549L85.6982 12.4835C85.6069 12.1274 85.5247 11.7713 85.4521 11.4152C85.3789 11.0591 85.3017 10.6889 85.2195 10.3057H85.1514C85.0692 10.6895 84.9943 11.0614 84.9261 11.422C84.858 11.7831 84.778 12.1415 84.6868 12.4976L83.7571 16.2103H81.9253L81.9259 16.2097Z" fill="white"/>
<path d="M93.6273 16.4016C93.1988 16.4016 92.8187 16.3102 92.4859 16.1273C92.1531 15.9445 91.8912 15.6888 91.6998 15.3604C91.5083 15.0314 91.4126 14.6482 91.4126 14.2097C91.4126 13.3971 91.7702 12.769 92.4859 12.326C93.2011 11.883 94.3425 11.5749 95.9102 11.4011C95.9012 11.1088 95.8556 10.8396 95.7734 10.593C95.6911 10.3464 95.5475 10.1477 95.3426 9.99706C95.1376 9.84638 94.8482 9.77076 94.4742 9.77076C94.0823 9.77076 93.7039 9.84864 93.3396 10.0038C92.9747 10.159 92.6289 10.3373 92.3006 10.5382L91.7127 9.46941C91.9768 9.30519 92.2685 9.14718 92.5878 8.99651C92.9065 8.84583 93.2484 8.72225 93.6133 8.62687C93.9776 8.53094 94.356 8.48297 94.7479 8.48297C95.3769 8.48297 95.8916 8.60882 96.2925 8.85994C96.6935 9.11107 96.9919 9.47449 97.1879 9.94909C97.3839 10.4243 97.4818 10.9993 97.4818 11.6754V16.2097H96.1968L96.0741 15.3469H96.0194C95.6821 15.6392 95.3133 15.8881 94.9124 16.0935C94.5114 16.2989 94.0829 16.4016 93.6273 16.4016ZM94.106 15.1409C94.4343 15.1409 94.7395 15.0653 95.0222 14.9146C95.3043 14.7639 95.601 14.5427 95.9108 14.2504V12.4146C95.1725 12.497 94.5846 12.6178 94.1471 12.7775C93.7095 12.9372 93.3976 13.1246 93.2106 13.339C93.0237 13.5534 92.9302 13.8029 92.9302 14.0856C92.9302 14.4603 93.0439 14.7295 93.272 14.8937C93.4995 15.0579 93.7777 15.1403 94.106 15.1403V15.1409Z" fill="white"/>
<path d="M99.7107 16.2097V8.6613H100.996L101.133 9.71602H101.16C101.506 9.37799 101.88 9.08849 102.281 8.84583C102.682 8.60374 103.138 8.48297 103.649 8.48297C104.45 8.48297 105.036 8.74087 105.405 9.25666C105.774 9.77302 105.958 10.51 105.958 11.4694V16.2097H104.386V11.6613C104.386 11.0128 104.286 10.5495 104.086 10.2708C103.885 9.99198 103.561 9.85315 103.115 9.85315C102.768 9.85315 102.46 9.9378 102.192 10.1065C101.923 10.2758 101.62 10.5292 101.283 10.8667V16.2097H99.7107Z" fill="white"/>
<path d="M110.824 19.5934C110.223 19.5934 109.685 19.5178 109.211 19.3671C108.737 19.2164 108.366 18.9947 108.097 18.7029C107.828 18.4106 107.694 18.0455 107.694 17.607C107.694 17.287 107.79 16.9857 107.981 16.7029C108.172 16.4196 108.441 16.1736 108.787 15.9631V15.9084C108.596 15.7808 108.434 15.6138 108.302 15.4084C108.17 15.2029 108.104 14.9496 108.104 14.6482C108.104 14.3469 108.193 14.0754 108.37 13.8333C108.548 13.5912 108.741 13.3971 108.951 13.2509V13.1962C108.687 12.9953 108.455 12.7216 108.254 12.374C108.054 12.0269 107.953 11.6296 107.953 11.1821C107.953 10.6161 108.088 10.1297 108.357 9.72334C108.625 9.31703 108.981 9.00891 109.423 8.79841C109.865 8.58848 110.346 8.48352 110.865 8.48352C111.083 8.48352 111.286 8.49932 111.473 8.53149C111.66 8.56365 111.821 8.60654 111.958 8.66185H114.624V9.8537H113.202C113.339 10.0089 113.453 10.2053 113.544 10.4429C113.635 10.6804 113.681 10.9406 113.681 11.2239C113.681 11.7718 113.555 12.2402 113.305 12.6279C113.054 13.0162 112.715 13.313 112.286 13.5184C111.858 13.7238 111.384 13.8266 110.864 13.8266C110.7 13.8266 110.525 13.8062 110.338 13.765C110.151 13.7238 109.976 13.6714 109.811 13.6076C109.692 13.708 109.594 13.8175 109.517 13.9366C109.44 14.0557 109.401 14.2063 109.401 14.3886C109.401 14.6076 109.49 14.7859 109.668 14.923C109.845 15.0602 110.175 15.1285 110.659 15.1285H112.053C112.937 15.1285 113.607 15.2724 114.063 15.5602C114.518 15.848 114.746 16.3113 114.746 16.9507C114.746 17.4349 114.587 17.8773 114.268 18.2797C113.948 18.6815 113.495 19.0009 112.908 19.2384C112.32 19.476 111.625 19.5945 110.823 19.5945L110.824 19.5934ZM111.043 18.5522C111.489 18.5522 111.872 18.4885 112.191 18.3604C112.51 18.2322 112.76 18.0658 112.943 17.8604C113.125 17.6549 113.216 17.4377 113.216 17.2097C113.216 16.8897 113.097 16.673 112.861 16.559C112.624 16.4445 112.278 16.388 111.822 16.388H110.687C110.505 16.388 110.332 16.379 110.168 16.3604C110.004 16.3418 109.839 16.3147 109.675 16.278C109.457 16.4422 109.297 16.6205 109.197 16.8124C109.097 17.0043 109.046 17.1911 109.046 17.3739C109.046 17.739 109.224 18.0268 109.58 18.2368C109.935 18.4467 110.423 18.5517 111.043 18.5517V18.5522ZM110.865 12.7984C111.12 12.7984 111.357 12.7346 111.576 12.6065C111.794 12.4789 111.968 12.2938 112.095 12.0518C112.222 11.8097 112.287 11.5196 112.287 11.1816C112.287 10.8435 112.223 10.558 112.095 10.3255C111.967 10.0924 111.797 9.91239 111.583 9.78429C111.369 9.65675 111.129 9.59242 110.865 9.59242C110.6 9.59242 110.361 9.65619 110.147 9.78429C109.933 9.91239 109.762 10.0924 109.634 10.3255C109.507 10.5585 109.443 10.8441 109.443 11.1816C109.443 11.519 109.509 11.8097 109.641 12.0518C109.773 12.2938 109.946 12.4789 110.16 12.6065C110.374 12.7346 110.609 12.7984 110.864 12.7984H110.865Z" fill="white"/>
<path d="M43.937 32.6491V22.5527H45.5227V31.293H49.7878V32.6491H43.937Z" fill="white"/>
<path d="M53.2055 32.841C52.7769 32.841 52.3968 32.7495 52.064 32.5667C51.7312 32.3838 51.4694 32.1282 51.2779 31.7998C51.0865 31.4708 50.9907 31.0876 50.9907 30.6491C50.9907 29.8365 51.3483 29.2084 52.064 28.7654C52.7792 28.3224 53.9206 28.0143 55.4883 27.8405C55.4793 27.5481 55.4337 27.279 55.3515 27.0323C55.2693 26.7857 55.1257 26.5871 54.9207 26.4364C54.7157 26.2857 54.4263 26.2101 54.0524 26.2101C53.6604 26.2101 53.282 26.288 52.9177 26.4432C52.5528 26.5984 52.2071 26.7767 51.8788 26.9776L51.2909 25.9088C51.555 25.7446 51.8467 25.5865 52.1659 25.4359C52.4847 25.2852 52.8265 25.1616 53.1914 25.0662C53.5557 24.9703 53.9341 24.9223 54.326 24.9223C54.955 24.9223 55.4697 25.0482 55.8707 25.2993C56.2716 25.5504 56.5701 25.9139 56.766 26.3884C56.962 26.8636 57.06 27.4387 57.06 28.1147V32.6491H55.7749L55.6522 31.7862H55.5976C55.2603 32.0785 54.8914 32.3274 54.4905 32.5328C54.0895 32.7382 53.661 32.841 53.2055 32.841ZM53.6841 31.5802C54.0124 31.5802 54.3176 31.5046 54.6003 31.354C54.8824 31.2033 55.1792 30.9821 55.4889 30.6897V28.854C54.7506 28.9364 54.1627 29.0571 53.7252 29.2169C53.2877 29.3766 52.9757 29.5639 52.7887 29.7784C52.6018 29.9928 52.5083 30.2422 52.5083 30.525C52.5083 30.8997 52.6221 31.1689 52.8501 31.3331C53.0776 31.4973 53.3558 31.5797 53.6841 31.5797V31.5802Z" fill="white"/>
<path d="M62.7885 32.841C62.4512 32.841 62.1004 32.7541 61.736 32.5808C61.3711 32.4076 61.0344 32.17 60.7247 31.8686H60.6701L60.5332 32.6497H59.2893V21.7311H60.8615V24.6216L60.8069 25.9093C61.1352 25.617 61.4928 25.38 61.8802 25.1972C62.2676 25.0143 62.6567 24.9229 63.0492 24.9229C63.6872 24.9229 64.2273 25.0804 64.6693 25.3958C65.1113 25.7107 65.4486 26.156 65.6807 26.7316C65.9127 27.3072 66.0292 27.9827 66.0292 28.7592C66.0292 29.6175 65.8766 30.3528 65.5714 30.9646C65.2662 31.5763 64.8675 32.0424 64.3753 32.3618C63.8832 32.6813 63.3544 32.8415 62.7896 32.8415L62.7885 32.841ZM62.4878 31.512C62.8521 31.512 63.1782 31.407 63.4654 31.1971C63.7526 30.9871 63.98 30.679 64.149 30.2721C64.3174 29.8658 64.4018 29.3704 64.4018 28.7857C64.4018 28.2564 64.3404 27.8015 64.2171 27.4229C64.0938 27.0442 63.9046 26.7519 63.6495 26.5459C63.3944 26.3405 63.0571 26.2378 62.6381 26.2378C62.3465 26.2378 62.0548 26.3128 61.7631 26.4641C61.4714 26.6148 61.1707 26.8456 60.861 27.1559V30.841C61.1431 31.0876 61.428 31.2614 61.7152 31.3613C62.0024 31.4617 62.2597 31.512 62.4878 31.512Z" fill="white"/>
<path d="M70.047 32.8409C69.4816 32.8409 69.0328 32.7292 68.7006 32.5052C68.3678 32.2817 68.1285 31.9708 67.9832 31.5735C67.8374 31.1762 67.7647 30.7129 67.7647 30.183V26.3743H66.6711V25.196L67.8469 25.1001L68.0249 23.0177H69.3369V25.1001H71.2915V26.3743H69.3369V30.1965C69.3369 30.644 69.4236 30.9843 69.5965 31.2168C69.7694 31.4499 70.0521 31.5661 70.444 31.5661C70.5713 31.5661 70.7081 31.5481 70.854 31.5114C70.9998 31.4747 71.1271 31.4341 71.2369 31.3884L71.5241 32.5526C71.3236 32.6163 71.0978 32.6801 70.8472 32.7444C70.5966 32.8082 70.3297 32.8404 70.0476 32.8404L70.047 32.8409Z" fill="white"/>
<path d="M72.9312 32.6491V25.1007H74.2162L74.353 26.4567H74.3806C74.6543 25.9725 74.9775 25.5961 75.3514 25.3264C75.7248 25.0572 76.1167 24.9223 76.5272 24.9223C76.7096 24.9223 76.8645 24.9359 76.9918 24.9635C77.119 24.9906 77.2424 25.0273 77.3606 25.073L77.0875 26.4567C76.9507 26.411 76.8279 26.3794 76.7187 26.3608C76.6094 26.3427 76.4771 26.3331 76.3222 26.3331C76.0215 26.3331 75.7022 26.4545 75.3655 26.696C75.0282 26.9381 74.741 27.3602 74.5045 27.9635V32.6485H72.9323L72.9312 32.6491Z" fill="white"/>
<path d="M81.4613 32.8409C80.7777 32.8409 80.1577 32.6835 79.6025 32.368C79.0467 32.0532 78.6046 31.6011 78.2763 31.012C77.9481 30.4228 77.7842 29.7129 77.7842 28.8816C77.7842 28.2699 77.8799 27.7197 78.0714 27.231C78.2628 26.7423 78.5224 26.3269 78.8507 25.9844C79.179 25.6418 79.5479 25.3794 79.9578 25.1966C80.3678 25.0138 80.7867 24.9223 81.2152 24.9223C81.8803 24.9223 82.4406 25.0707 82.8967 25.3676C83.3523 25.6644 83.6986 26.0798 83.9356 26.6142C84.1727 27.1486 84.291 27.7716 84.291 28.4844C84.291 28.6395 84.2842 28.788 84.2707 28.9296C84.2572 29.0713 84.2363 29.192 84.2093 29.2925H79.3288C79.3744 29.7676 79.4994 30.1762 79.705 30.5187C79.9099 30.8613 80.1785 31.1265 80.5113 31.3133C80.8441 31.5007 81.2242 31.5944 81.6528 31.5944C81.9901 31.5944 82.3043 31.5441 82.596 31.4437C82.8877 31.3432 83.1704 31.2061 83.4435 31.0329L83.9903 32.0328C83.6439 32.2614 83.2588 32.4533 82.8353 32.6084C82.4119 32.7636 81.9535 32.8415 81.4613 32.8415V32.8409ZM79.3153 28.1965H82.9243C82.9243 27.5572 82.7807 27.0594 82.4935 26.7033C82.2063 26.3473 81.7896 26.1689 81.2428 26.1689C80.9331 26.1689 80.6414 26.2468 80.3677 26.402C80.0941 26.5572 79.8643 26.7857 79.6774 27.0871C79.4904 27.3884 79.3699 27.7581 79.3153 28.1965Z" fill="white"/>
<path d="M89.1984 32.8409C88.5148 32.8409 87.8948 32.6835 87.3395 32.368C86.7837 32.0532 86.3417 31.6011 86.0134 31.012C85.6851 30.4228 85.5212 29.7129 85.5212 28.8816C85.5212 28.2699 85.617 27.7197 85.8084 27.231C85.9999 26.7423 86.2595 26.3269 86.5878 25.9844C86.9161 25.6418 87.2849 25.3794 87.6949 25.1966C88.1048 25.0138 88.5238 24.9223 88.9523 24.9223C89.6173 24.9223 90.1776 25.0707 90.6338 25.3676C91.0893 25.6644 91.4356 26.0798 91.6727 26.6142C91.9098 27.1486 92.028 27.7716 92.028 28.4844C92.028 28.6395 92.0213 28.788 92.0078 28.9296C91.9942 29.0713 91.9734 29.192 91.9464 29.2925H87.0659C87.1115 29.7676 87.2365 30.1762 87.442 30.5187C87.647 30.8613 87.9156 31.1265 88.2484 31.3133C88.5812 31.5007 88.9613 31.5944 89.3898 31.5944C89.7271 31.5944 90.0414 31.5441 90.3331 31.4437C90.6247 31.3432 90.9074 31.2061 91.1805 31.0329L91.7273 32.0328C91.381 32.2614 90.9958 32.4533 90.5724 32.6084C90.1489 32.7636 89.6905 32.8415 89.1984 32.8415V32.8409ZM87.0524 28.1965H90.6613C90.6613 27.5572 90.5178 27.0594 90.2306 26.7033C89.9434 26.3473 89.5267 26.1689 88.9799 26.1689C88.6702 26.1689 88.3785 26.2468 88.1048 26.402C87.8311 26.5572 87.6014 26.7857 87.4144 27.0871C87.2275 27.3884 87.107 27.7581 87.0524 28.1965Z" fill="white"/>
<path d="M17.8659 14.0054C19.1893 12.677 20.7344 12.4394 22.4108 13.063C23.7432 13.5585 24.4313 14.6234 24.6554 15.9981C24.714 16.357 24.7213 16.7277 24.7219 17.0929C24.7269 19.8197 24.7247 22.5465 24.7247 25.2739C24.7247 25.3952 24.7247 25.5165 24.7247 25.6593H22.069C22.0628 25.5476 22.051 25.4296 22.051 25.3117C22.0493 22.538 22.0527 19.7638 22.0443 16.9901C22.0431 16.6837 22.015 16.3677 21.935 16.0737C21.7627 15.4433 21.2874 15.1081 20.646 15.1115C19.9579 15.1149 19.4855 15.4495 19.3092 16.0929C19.2433 16.3338 19.2101 16.5917 19.2095 16.8423C19.2028 19.6634 19.205 22.4844 19.205 25.3049C19.205 25.4167 19.205 25.5284 19.205 25.6604H16.5178C16.5178 25.5521 16.5178 25.4432 16.5178 25.3343C16.5178 22.485 16.5184 19.6357 16.5173 16.787C16.5173 16.6369 16.5201 16.4839 16.4908 16.3378C16.3163 15.4608 15.7683 15.0387 14.9225 15.1188C14.2192 15.1849 13.7073 15.7881 13.6933 16.5968C13.6809 17.3395 13.6905 18.0827 13.6905 18.8253C13.6905 21.007 13.6905 23.1881 13.6905 25.3698V25.6638H11.0207C11.0151 25.5718 11.005 25.49 11.005 25.4082C11.005 22.4935 10.9717 19.5776 11.0168 16.6634C11.0461 14.7605 12.0636 13.2679 13.945 12.8666C15.3742 12.5619 16.6862 12.8057 17.7494 13.9055C17.7815 13.9388 17.8192 13.9665 17.8648 14.006L17.8659 14.0054Z" fill="white"/>
<path d="M0 24.0905C0.48653 23.5753 0.95842 23.0685 1.44439 22.5753C1.48324 22.5358 1.63472 22.5657 1.7068 22.6086C2.41125 23.0313 3.14724 23.3828 3.9632 23.5143C4.77915 23.6458 5.57089 23.573 6.28604 23.0973C7.10368 22.5533 7.14254 21.5742 6.30068 21.0725C5.72856 20.7316 5.08154 20.5031 4.44804 20.283C3.49356 19.9512 2.52219 19.6769 1.63472 19.1668C-0.455559 17.9647 -0.416141 15.0703 1.4213 13.7757C2.60891 12.9394 3.93335 12.6815 5.34339 12.7876C6.76018 12.8937 7.99397 13.4738 9.13765 14.3638C8.80598 14.984 8.47655 15.5996 8.13981 16.23C7.71804 16.0122 7.32104 15.7876 6.90772 15.5991C6.22016 15.2859 5.5005 15.0415 4.7386 15.0951C4.28136 15.1273 3.80102 15.2221 3.38769 15.4123C2.66353 15.7452 2.60497 16.6284 3.23284 17.1222C3.75259 17.5308 4.37877 17.7097 4.99426 17.9083C5.98309 18.2271 6.97529 18.5234 7.90162 19.0195C10.3337 20.3214 10.1045 23.5358 8.11222 24.8619C7.14423 25.5064 6.07487 25.7829 4.92668 25.8128C3.77005 25.8433 2.64326 25.7084 1.57953 25.2237C0.987139 24.9539 0.454996 24.595 0 24.0911L0 24.0905Z" fill="white"/>
<path d="M36.0935 23.3873C35.8603 24.1475 35.652 24.8467 35.4245 25.5397C35.4025 25.6068 35.26 25.6723 35.1728 25.6734C34.1693 25.683 33.1653 25.6802 32.1618 25.6802C30.7078 25.6802 29.2539 25.6802 27.7999 25.6791C27.1664 25.6785 26.9153 25.4229 26.913 24.7897C26.9012 21.2835 26.8888 17.7774 26.877 14.2718C26.8753 13.8412 26.877 13.4101 26.877 12.9592H29.5495C29.5495 13.3948 29.5495 13.8316 29.5495 14.2684C29.5518 17.0979 29.5495 19.9275 29.5596 22.7576C29.5625 23.5431 29.5123 23.3823 30.1886 23.3856C32.0086 23.3952 33.8286 23.3885 35.6486 23.3885C35.7697 23.3885 35.8902 23.3885 36.094 23.3885L36.0935 23.3873Z" fill="white"/>
<path d="M17.8771 2.43507C23.6333 2.43507 28.7013 5.38423 31.661 9.85651H34.4997C31.2753 3.98188 25.0405 0 17.8771 0C10.7138 0 4.47952 3.98188 1.25513 9.85651H4.09378C7.05295 5.38423 12.121 2.43507 17.8771 2.43507Z" fill="white"/>
<path d="M17.8772 35.5644C12.1903 35.5644 7.17465 32.6857 4.20028 28.3037H1.34473C4.59446 34.0903 10.7797 37.9994 17.8772 37.9994C24.9747 37.9994 31.1605 34.0903 34.4097 28.3037H31.5535C28.5797 32.6857 23.5635 35.5644 17.8766 35.5644H17.8772Z" fill="white"/>
</g>
<defs>
<clipPath id="clip0_109_54">
<rect width="114.747" height="38" fill="white"/>
</clipPath>
</defs>
</svg>
