<svg width="115" height="38" viewBox="0 0 115 38" fill="none" xmlns="http://www.w3.org/2000/svg">
<g clip-path="url(#clip0_109_31)">
<path d="M46.8077 16.4016C46.115 16.4016 45.4613 16.269 44.8458 16.0043C44.2309 15.7396 43.6908 15.3739 43.2257 14.9084L44.1554 13.8125C44.5197 14.1685 44.937 14.4563 45.4061 14.6753C45.8752 14.8943 46.3561 15.0043 46.8482 15.0043C47.4496 15.0043 47.9119 14.8723 48.2357 14.607C48.559 14.3424 48.7211 13.9998 48.7211 13.5794C48.7211 13.269 48.653 13.0201 48.5162 12.8328C48.3793 12.6454 48.1901 12.488 47.9485 12.3599C47.707 12.2323 47.431 12.0997 47.1213 11.9626L45.7271 11.3599C45.3988 11.2228 45.0778 11.0427 44.7636 10.8187C44.4494 10.5952 44.1892 10.3119 43.9842 9.96939C43.7793 9.62685 43.6768 9.20925 43.6768 8.71603C43.6768 8.18669 43.8181 7.71153 44.1008 7.2911C44.3829 6.87124 44.7748 6.53999 45.2766 6.29789C45.7777 6.05579 46.347 5.93503 46.9851 5.93503C47.5775 5.93503 48.1378 6.04959 48.6665 6.27757C49.1947 6.50613 49.6463 6.8165 50.0197 7.20928L49.2133 8.2228C48.894 7.94008 48.555 7.7183 48.1952 7.55859C47.8348 7.39889 47.4316 7.31875 46.9856 7.31875C46.4664 7.31875 46.0559 7.43501 45.7552 7.66807C45.4545 7.90114 45.3042 8.21378 45.3042 8.60655C45.3042 8.89887 45.3813 9.13871 45.5367 9.32606C45.6916 9.51342 45.8943 9.66861 46.1449 9.79163C46.3955 9.91465 46.6528 10.0315 46.9175 10.1409L48.2982 10.7301C48.6992 10.8943 49.0545 11.0952 49.3648 11.3328C49.6745 11.5704 49.9161 11.8582 50.0895 12.1957C50.2624 12.5337 50.3491 12.9541 50.3491 13.4558C50.3491 13.9947 50.2078 14.4857 49.9251 14.9287C49.6424 15.3717 49.2369 15.7278 48.7082 15.997C48.1794 16.2661 47.5465 16.401 46.8082 16.401L46.8077 16.4016Z" fill="#972448"/>
<path d="M53.8888 16.4016C53.4603 16.4016 53.0802 16.3102 52.7474 16.1273C52.4146 15.9445 52.1527 15.6888 51.9613 15.3604C51.7698 15.0314 51.6741 14.6482 51.6741 14.2097C51.6741 13.3971 52.0316 12.769 52.7474 12.326C53.4625 11.883 54.604 11.5749 56.1717 11.4011C56.1627 11.1088 56.117 10.8396 56.0348 10.593C55.9526 10.3464 55.809 10.1477 55.604 9.99706C55.3991 9.84638 55.1096 9.77076 54.7357 9.77076C54.3438 9.77076 53.9654 9.84864 53.601 10.0038C53.2361 10.159 52.8904 10.3373 52.5621 10.5382L51.9742 9.46941C52.2383 9.30519 52.53 9.14718 52.8493 8.99651C53.168 8.84583 53.5098 8.72225 53.8747 8.62687C54.2391 8.53094 54.6175 8.48297 55.0094 8.48297C55.6384 8.48297 56.1531 8.60882 56.554 8.85994C56.955 9.11107 57.2534 9.47449 57.4494 9.94909C57.6453 10.4243 57.7433 10.9993 57.7433 11.6754V16.2097H56.4583L56.3355 15.3469H56.2809C55.9436 15.6392 55.5748 15.8881 55.1738 16.0935C54.7729 16.2989 54.3444 16.4016 53.8888 16.4016ZM54.3669 15.1409C54.6952 15.1409 55.0004 15.0653 55.2831 14.9146C55.5652 14.7639 55.862 14.5427 56.1717 14.2504V12.4146C55.4334 12.497 54.8455 12.6178 54.408 12.7775C53.9705 12.9372 53.6585 13.1246 53.4715 13.339C53.2846 13.5534 53.1911 13.8029 53.1911 14.0856C53.1911 14.4603 53.3048 14.7295 53.5329 14.8937C53.7604 15.0579 54.0386 15.1403 54.3669 15.1403V15.1409Z" fill="#972448"/>
<path d="M59.9716 16.2097V8.66128H61.2566L61.3934 9.72955H61.421C61.7493 9.38249 62.1024 9.08791 62.4802 8.84582C62.8581 8.60372 63.2844 8.48296 63.7585 8.48296C64.3143 8.48296 64.7563 8.60429 65.0846 8.84582C65.4129 9.08791 65.659 9.4282 65.8229 9.86612C66.1962 9.46432 66.5814 9.13306 66.9778 8.8729C67.3743 8.61275 67.805 8.48239 68.2696 8.48239C69.0535 8.48239 69.634 8.74029 70.0124 9.25608C70.3903 9.77244 70.5801 10.5094 70.5801 11.4688V16.2091H68.9943V11.6607C68.9943 11.0123 68.8941 10.549 68.6936 10.2702C68.4932 9.9914 68.1784 9.85257 67.7504 9.85257C67.4953 9.85257 67.2284 9.93497 66.9508 10.0992C66.6726 10.2634 66.3742 10.5196 66.0554 10.8667V16.2097H64.4832V11.6612C64.4832 11.0128 64.383 10.5495 64.1825 10.2707C63.9821 9.99196 63.6633 9.85314 63.2258 9.85314C62.9797 9.85314 62.715 9.93553 62.4329 10.0997C62.1502 10.264 61.8541 10.5202 61.5443 10.8672V16.2103H59.9721L59.9716 16.2097Z" fill="#972448"/>
<path d="M72.8624 16.2097V5.29114H74.407V12.3193H74.4617L77.3735 8.66129H79.1231L76.5807 11.7436L79.4103 16.2097H77.7018L75.665 12.7984L74.4076 14.2504V16.2091H72.863L72.8624 16.2097Z" fill="#972448"/>
<path d="M81.9257 16.2097L79.9025 8.66129H81.4882L82.486 12.7436C82.5587 13.1087 82.6274 13.4676 82.691 13.8192C82.7546 14.1708 82.8228 14.5291 82.896 14.8948H82.9641C83.0368 14.5297 83.1122 14.1708 83.1894 13.8192C83.2665 13.4676 83.351 13.1093 83.4422 12.7436L84.5087 8.66129H85.9576L87.0377 12.7436C87.1289 13.1087 87.2156 13.4676 87.2973 13.8192C87.3795 14.1708 87.4611 14.5291 87.5434 14.8948H87.6115C87.6841 14.5297 87.7551 14.1708 87.8232 13.8192C87.8914 13.4676 87.9618 13.1093 88.035 12.7436L89.0058 8.66129H90.4958L88.5412 16.2097H86.6548L85.698 12.4835C85.6068 12.1274 85.5246 11.7713 85.452 11.4152C85.3788 11.0591 85.3016 10.6889 85.2194 10.3057H85.1513C85.069 10.6895 84.9941 11.0614 84.926 11.422C84.8579 11.7831 84.7779 12.1415 84.6867 12.4976L83.757 16.2103H81.9252L81.9257 16.2097Z" fill="#972448"/>
<path d="M93.6272 16.4016C93.1987 16.4016 92.8186 16.3102 92.4858 16.1273C92.153 15.9445 91.8911 15.6888 91.6997 15.3604C91.5082 15.0314 91.4125 14.6482 91.4125 14.2097C91.4125 13.3971 91.7701 12.769 92.4858 12.326C93.2009 11.883 94.3424 11.5749 95.9101 11.4011C95.9011 11.1088 95.8554 10.8396 95.7732 10.593C95.691 10.3464 95.5474 10.1477 95.3425 9.99706C95.1375 9.84638 94.848 9.77076 94.4741 9.77076C94.0822 9.77076 93.7038 9.84864 93.3395 10.0038C92.9746 10.159 92.6288 10.3373 92.3005 10.5382L91.7126 9.46941C91.9767 9.30519 92.2684 9.14718 92.5877 8.99651C92.9064 8.84583 93.2482 8.72225 93.6131 8.62687C93.9775 8.53094 94.3559 8.48297 94.7478 8.48297C95.3768 8.48297 95.8915 8.60882 96.2924 8.85994C96.6934 9.11107 96.9918 9.47449 97.1878 9.94909C97.3837 10.4243 97.4817 10.9993 97.4817 11.6754V16.2097H96.1967L96.0739 15.3469H96.0193C95.682 15.6392 95.3132 15.8881 94.9122 16.0935C94.5113 16.2989 94.0828 16.4016 93.6272 16.4016ZM94.1059 15.1409C94.4341 15.1409 94.7394 15.0653 95.022 14.9146C95.3042 14.7639 95.6009 14.5427 95.9106 14.2504V12.4146C95.1724 12.497 94.5845 12.6178 94.147 12.7775C93.7094 12.9372 93.3975 13.1246 93.2105 13.339C93.0235 13.5534 92.9301 13.8029 92.9301 14.0856C92.9301 14.4603 93.0438 14.7295 93.2719 14.8937C93.4994 15.0579 93.7776 15.1403 94.1059 15.1403V15.1409Z" fill="#972448"/>
<path d="M99.7106 16.2097V8.6613H100.996L101.132 9.71602H101.16C101.506 9.37799 101.88 9.08849 102.281 8.84583C102.682 8.60374 103.138 8.48297 103.648 8.48297C104.45 8.48297 105.036 8.74087 105.405 9.25666C105.774 9.77302 105.958 10.51 105.958 11.4694V16.2097H104.386V11.6613C104.386 11.0128 104.286 10.5495 104.085 10.2708C103.885 9.99198 103.561 9.85315 103.115 9.85315C102.768 9.85315 102.46 9.9378 102.192 10.1065C101.922 10.2758 101.62 10.5292 101.283 10.8667V16.2097H99.7106Z" fill="#972448"/>
<path d="M110.824 19.5934C110.223 19.5934 109.685 19.5178 109.211 19.3671C108.737 19.2164 108.366 18.9947 108.097 18.7029C107.828 18.4106 107.694 18.0455 107.694 17.607C107.694 17.287 107.79 16.9857 107.981 16.7029C108.172 16.4196 108.441 16.1736 108.787 15.9631V15.9084C108.596 15.7808 108.434 15.6138 108.302 15.4084C108.17 15.2029 108.104 14.9496 108.104 14.6482C108.104 14.3469 108.193 14.0754 108.37 13.8333C108.548 13.5912 108.741 13.3971 108.951 13.2509V13.1962C108.687 12.9953 108.455 12.7216 108.254 12.374C108.054 12.0269 107.953 11.6296 107.953 11.1821C107.953 10.6161 108.088 10.1297 108.357 9.72334C108.625 9.31703 108.981 9.00891 109.423 8.79841C109.865 8.58848 110.346 8.48352 110.865 8.48352C111.083 8.48352 111.286 8.49932 111.473 8.53149C111.66 8.56365 111.821 8.60654 111.958 8.66185H114.624V9.8537H113.202C113.339 10.0089 113.453 10.2053 113.544 10.4429C113.635 10.6804 113.681 10.9406 113.681 11.2239C113.681 11.7718 113.555 12.2402 113.305 12.6279C113.054 13.0162 112.715 13.313 112.286 13.5184C111.858 13.7238 111.384 13.8266 110.864 13.8266C110.7 13.8266 110.525 13.8062 110.338 13.765C110.151 13.7238 109.976 13.6714 109.811 13.6076C109.692 13.708 109.594 13.8175 109.517 13.9366C109.44 14.0557 109.401 14.2063 109.401 14.3886C109.401 14.6076 109.49 14.7859 109.668 14.923C109.845 15.0602 110.175 15.1285 110.659 15.1285H112.053C112.937 15.1285 113.607 15.2724 114.063 15.5602C114.518 15.848 114.746 16.3113 114.746 16.9507C114.746 17.4349 114.587 17.8773 114.268 18.2797C113.948 18.6815 113.495 19.0009 112.908 19.2384C112.32 19.476 111.625 19.5945 110.823 19.5945L110.824 19.5934ZM111.043 18.5522C111.489 18.5522 111.872 18.4885 112.191 18.3604C112.51 18.2322 112.76 18.0658 112.943 17.8604C113.125 17.6549 113.216 17.4377 113.216 17.2097C113.216 16.8897 113.097 16.673 112.861 16.559C112.624 16.4445 112.278 16.388 111.822 16.388H110.687C110.505 16.388 110.332 16.379 110.168 16.3604C110.004 16.3418 109.839 16.3147 109.675 16.278C109.457 16.4422 109.297 16.6205 109.197 16.8124C109.097 17.0043 109.046 17.1911 109.046 17.3739C109.046 17.739 109.224 18.0268 109.58 18.2368C109.935 18.4467 110.423 18.5517 111.043 18.5517V18.5522ZM110.865 12.7984C111.12 12.7984 111.357 12.7346 111.576 12.6065C111.794 12.4789 111.968 12.2938 112.095 12.0518C112.222 11.8097 112.287 11.5196 112.287 11.1816C112.287 10.8435 112.223 10.558 112.095 10.3255C111.967 10.0924 111.797 9.91239 111.583 9.78429C111.369 9.65675 111.129 9.59242 110.865 9.59242C110.6 9.59242 110.361 9.65619 110.147 9.78429C109.933 9.91239 109.762 10.0924 109.634 10.3255C109.507 10.5585 109.443 10.8441 109.443 11.1816C109.443 11.519 109.509 11.8097 109.641 12.0518C109.773 12.2938 109.946 12.4789 110.16 12.6065C110.374 12.7346 110.609 12.7984 110.864 12.7984H110.865Z" fill="#972448"/>
<path d="M43.9369 32.6491V22.5527H45.5226V31.293H49.7876V32.6491H43.9369Z" fill="#972448"/>
<path d="M53.2052 32.841C52.7767 32.841 52.3966 32.7495 52.0638 32.5667C51.731 32.3838 51.4691 32.1282 51.2777 31.7998C51.0862 31.4708 50.9905 31.0876 50.9905 30.6491C50.9905 29.8365 51.3481 29.2084 52.0638 28.7654C52.7789 28.3224 53.9204 28.0143 55.4881 27.8405C55.4791 27.5481 55.4334 27.279 55.3512 27.0323C55.269 26.7857 55.1254 26.5871 54.9205 26.4364C54.7155 26.2857 54.426 26.2101 54.0521 26.2101C53.6602 26.2101 53.2818 26.288 52.9175 26.4432C52.5526 26.5984 52.2068 26.7767 51.8785 26.9776L51.2906 25.9088C51.5547 25.7446 51.8464 25.5865 52.1657 25.4359C52.4844 25.2852 52.8262 25.1616 53.1911 25.0662C53.5555 24.9703 53.9339 24.9223 54.3258 24.9223C54.9548 24.9223 55.4695 25.0482 55.8704 25.2993C56.2714 25.5504 56.5698 25.9139 56.7658 26.3884C56.9617 26.8636 57.0597 27.4387 57.0597 28.1147V32.6491H55.7747L55.6519 31.7862H55.5973C55.26 32.0785 54.8912 32.3274 54.4902 32.5328C54.0893 32.7382 53.6608 32.841 53.2052 32.841ZM53.6839 31.5802C54.0121 31.5802 54.3174 31.5046 54.6 31.354C54.8822 31.2033 55.1789 30.9821 55.4886 30.6897V28.854C54.7504 28.9364 54.1625 29.0571 53.725 29.2169C53.2874 29.3766 52.9755 29.5639 52.7885 29.7784C52.6015 29.9928 52.5081 30.2422 52.5081 30.525C52.5081 30.8997 52.6218 31.1689 52.8499 31.3331C53.0774 31.4973 53.3556 31.5797 53.6839 31.5797V31.5802Z" fill="#972448"/>
<path d="M62.7883 32.841C62.4509 32.841 62.1001 32.7541 61.7358 32.5808C61.3709 32.4076 61.0342 32.17 60.7244 31.8686H60.6698L60.533 32.6497H59.2891V21.7311H60.8613V24.6216L60.8067 25.9093C61.1349 25.617 61.4925 25.38 61.88 25.1972C62.2674 25.0143 62.6565 24.9229 63.049 24.9229C63.687 24.9229 64.227 25.0804 64.6691 25.3958C65.1111 25.7107 65.4484 26.156 65.6804 26.7316C65.9124 27.3072 66.029 27.9827 66.029 28.7592C66.029 29.6175 65.8764 30.3528 65.5712 30.9646C65.266 31.5763 64.8673 32.0424 64.3751 32.3618C63.8829 32.6813 63.3542 32.8415 62.7894 32.8415L62.7883 32.841ZM62.4876 31.512C62.8519 31.512 63.1779 31.407 63.4651 31.1971C63.7523 30.9871 63.9798 30.679 64.1487 30.2721C64.3171 29.8658 64.4016 29.3704 64.4016 28.7857C64.4016 28.2564 64.3402 27.8015 64.2169 27.4229C64.0936 27.0442 63.9043 26.7519 63.6493 26.5459C63.3942 26.3405 63.0569 26.2378 62.6379 26.2378C62.3462 26.2378 62.0545 26.3128 61.7628 26.4641C61.4711 26.6148 61.1704 26.8456 60.8607 27.1559V30.841C61.1428 31.0876 61.4278 31.2614 61.715 31.3613C62.0021 31.4617 62.2595 31.512 62.4876 31.512Z" fill="#972448"/>
<path d="M70.0468 32.8409C69.4814 32.8409 69.0326 32.7292 68.7004 32.5052C68.3676 32.2817 68.1282 31.9708 67.983 31.5735C67.8371 31.1762 67.7645 30.7129 67.7645 30.183V26.3743H66.6709V25.196L67.8467 25.1001L68.0246 23.0177H69.3367V25.1001H71.2913V26.3743H69.3367V30.1965C69.3367 30.644 69.4234 30.9843 69.5963 31.2168C69.7692 31.4499 70.0518 31.5661 70.4438 31.5661C70.571 31.5661 70.7079 31.5481 70.8537 31.5114C70.9996 31.4747 71.1268 31.4341 71.2366 31.3884L71.5238 32.5526C71.3233 32.6163 71.0975 32.6801 70.847 32.7444C70.5964 32.8082 70.3295 32.8404 70.0473 32.8404L70.0468 32.8409Z" fill="#972448"/>
<path d="M72.9312 32.6491V25.1007H74.2162L74.353 26.4567H74.3806C74.6543 25.9725 74.9775 25.5961 75.3514 25.3264C75.7248 25.0572 76.1167 24.9223 76.5272 24.9223C76.7096 24.9223 76.8645 24.9359 76.9918 24.9635C77.119 24.9906 77.2424 25.0273 77.3606 25.073L77.0875 26.4567C76.9507 26.411 76.8279 26.3794 76.7187 26.3608C76.6094 26.3427 76.4771 26.3331 76.3222 26.3331C76.0215 26.3331 75.7022 26.4545 75.3655 26.696C75.0282 26.9381 74.741 27.3602 74.5045 27.9635V32.6485H72.9323L72.9312 32.6491Z" fill="#972448"/>
<path d="M81.4612 32.8409C80.7776 32.8409 80.1576 32.6835 79.6024 32.368C79.0466 32.0532 78.6045 31.6011 78.2762 31.012C77.9479 30.4228 77.7841 29.7129 77.7841 28.8816C77.7841 28.2699 77.8798 27.7197 78.0713 27.231C78.2627 26.7423 78.5223 26.3269 78.8506 25.9844C79.1789 25.6418 79.5477 25.3794 79.9577 25.1966C80.3676 25.0138 80.7866 24.9223 81.2151 24.9223C81.8802 24.9223 82.4404 25.0707 82.8966 25.3676C83.3521 25.6644 83.6985 26.0798 83.9355 26.6142C84.1726 27.1486 84.2908 27.7716 84.2908 28.4844C84.2908 28.6395 84.2841 28.788 84.2706 28.9296C84.2571 29.0713 84.2362 29.192 84.2092 29.2925H79.3287C79.3743 29.7676 79.4993 30.1762 79.7048 30.5187C79.9098 30.8613 80.1784 31.1265 80.5112 31.3133C80.844 31.5007 81.2241 31.5944 81.6527 31.5944C81.99 31.5944 82.3042 31.5441 82.5959 31.4437C82.8876 31.3432 83.1702 31.2061 83.4434 31.0329L83.9901 32.0328C83.6438 32.2614 83.2587 32.4533 82.8352 32.6084C82.4117 32.7636 81.9534 32.8415 81.4612 32.8415V32.8409ZM79.3152 28.1965H82.9242C82.9242 27.5572 82.7806 27.0594 82.4934 26.7033C82.2062 26.3473 81.7895 26.1689 81.2427 26.1689C80.933 26.1689 80.6413 26.2468 80.3676 26.402C80.094 26.5572 79.8642 26.7857 79.6772 27.0871C79.4903 27.3884 79.3698 27.7581 79.3152 28.1965Z" fill="#972448"/>
<path d="M89.1984 32.8409C88.5148 32.8409 87.8948 32.6835 87.3395 32.368C86.7837 32.0532 86.3417 31.6011 86.0134 31.012C85.6851 30.4228 85.5212 29.7129 85.5212 28.8816C85.5212 28.2699 85.617 27.7197 85.8084 27.231C85.9999 26.7423 86.2595 26.3269 86.5878 25.9844C86.9161 25.6418 87.2849 25.3794 87.6949 25.1966C88.1048 25.0138 88.5238 24.9223 88.9523 24.9223C89.6173 24.9223 90.1776 25.0707 90.6338 25.3676C91.0893 25.6644 91.4356 26.0798 91.6727 26.6142C91.9098 27.1486 92.028 27.7716 92.028 28.4844C92.028 28.6395 92.0213 28.788 92.0078 28.9296C91.9942 29.0713 91.9734 29.192 91.9464 29.2925H87.0659C87.1115 29.7676 87.2365 30.1762 87.442 30.5187C87.647 30.8613 87.9156 31.1265 88.2484 31.3133C88.5812 31.5007 88.9613 31.5944 89.3898 31.5944C89.7271 31.5944 90.0414 31.5441 90.3331 31.4437C90.6247 31.3432 90.9074 31.2061 91.1805 31.0329L91.7273 32.0328C91.381 32.2614 90.9958 32.4533 90.5724 32.6084C90.1489 32.7636 89.6905 32.8415 89.1984 32.8415V32.8409ZM87.0524 28.1965H90.6613C90.6613 27.5572 90.5178 27.0594 90.2306 26.7033C89.9434 26.3473 89.5267 26.1689 88.9799 26.1689C88.6702 26.1689 88.3785 26.2468 88.1048 26.402C87.8311 26.5572 87.6014 26.7857 87.4144 27.0871C87.2275 27.3884 87.107 27.7581 87.0524 28.1965Z" fill="#972448"/>
<path d="M17.8659 14.0054C19.1893 12.677 20.7344 12.4394 22.4108 13.063C23.7432 13.5585 24.4313 14.6234 24.6554 15.9981C24.714 16.357 24.7213 16.7277 24.7219 17.0929C24.7269 19.8197 24.7247 22.5465 24.7247 25.2739C24.7247 25.3952 24.7247 25.5165 24.7247 25.6593H22.069C22.0628 25.5476 22.051 25.4296 22.051 25.3117C22.0493 22.538 22.0527 19.7638 22.0443 16.9901C22.0431 16.6837 22.015 16.3677 21.935 16.0737C21.7627 15.4433 21.2874 15.1081 20.646 15.1115C19.9579 15.1149 19.4855 15.4495 19.3092 16.0929C19.2433 16.3338 19.2101 16.5917 19.2095 16.8423C19.2028 19.6634 19.205 22.4844 19.205 25.3049C19.205 25.4167 19.205 25.5284 19.205 25.6604H16.5178C16.5178 25.5521 16.5178 25.4432 16.5178 25.3343C16.5178 22.485 16.5184 19.6357 16.5173 16.787C16.5173 16.6369 16.5201 16.4839 16.4908 16.3378C16.3163 15.4608 15.7683 15.0387 14.9225 15.1188C14.2192 15.1849 13.7073 15.7881 13.6933 16.5968C13.6809 17.3395 13.6905 18.0827 13.6905 18.8253C13.6905 21.007 13.6905 23.1881 13.6905 25.3698V25.6638H11.0207C11.0151 25.5718 11.005 25.49 11.005 25.4082C11.005 22.4935 10.9717 19.5776 11.0168 16.6634C11.0461 14.7605 12.0636 13.2679 13.945 12.8666C15.3742 12.5619 16.6862 12.8057 17.7494 13.9055C17.7815 13.9388 17.8192 13.9665 17.8648 14.006L17.8659 14.0054Z" fill="#972448"/>
<path d="M0 24.0905C0.48653 23.5753 0.95842 23.0685 1.44439 22.5753C1.48324 22.5358 1.63472 22.5657 1.7068 22.6086C2.41125 23.0313 3.14724 23.3828 3.9632 23.5143C4.77915 23.6458 5.57089 23.573 6.28604 23.0973C7.10368 22.5533 7.14254 21.5742 6.30068 21.0725C5.72856 20.7316 5.08154 20.5031 4.44804 20.283C3.49356 19.9512 2.52219 19.6769 1.63472 19.1668C-0.455559 17.9647 -0.416141 15.0703 1.4213 13.7757C2.60891 12.9394 3.93335 12.6815 5.34339 12.7876C6.76018 12.8937 7.99397 13.4738 9.13765 14.3638C8.80598 14.984 8.47655 15.5996 8.13981 16.23C7.71804 16.0122 7.32104 15.7876 6.90772 15.5991C6.22016 15.2859 5.5005 15.0415 4.7386 15.0951C4.28136 15.1273 3.80102 15.2221 3.38769 15.4123C2.66353 15.7452 2.60497 16.6284 3.23284 17.1222C3.75259 17.5308 4.37877 17.7097 4.99426 17.9083C5.98309 18.2271 6.97529 18.5234 7.90162 19.0195C10.3337 20.3214 10.1045 23.5358 8.11222 24.8619C7.14423 25.5064 6.07487 25.7829 4.92668 25.8128C3.77005 25.8433 2.64326 25.7084 1.57953 25.2237C0.987139 24.9539 0.454996 24.595 0 24.0911L0 24.0905Z" fill="#972448"/>
<path d="M36.0933 23.3873C35.8602 24.1475 35.6519 24.8467 35.4244 25.5397C35.4024 25.6068 35.2599 25.6723 35.1726 25.6734C34.1692 25.683 33.1651 25.6802 32.1617 25.6802C30.7077 25.6802 29.2538 25.6802 27.7998 25.6791C27.1663 25.6785 26.9151 25.4229 26.9129 24.7897C26.9011 21.2835 26.8887 17.7774 26.8768 14.2718C26.8752 13.8412 26.8768 13.4101 26.8768 12.9592H29.5494C29.5494 13.3948 29.5494 13.8316 29.5494 14.2684C29.5516 17.0979 29.5494 19.9275 29.5595 22.7576C29.5623 23.5431 29.5122 23.3823 30.1885 23.3856C32.0085 23.3952 33.8285 23.3885 35.6485 23.3885C35.7695 23.3885 35.8901 23.3885 36.0939 23.3885L36.0933 23.3873Z" fill="#972448"/>
<path d="M17.8771 2.43507C23.6333 2.43507 28.7013 5.38423 31.661 9.85651H34.4997C31.2753 3.98188 25.0405 0 17.8771 0C10.7138 0 4.47952 3.98188 1.25513 9.85651H4.09378C7.05295 5.38423 12.121 2.43507 17.8771 2.43507Z" fill="url(#paint0_linear_109_31)"/>
<path d="M17.8772 35.5644C12.1903 35.5644 7.17465 32.6857 4.20028 28.3037H1.34473C4.59446 34.0903 10.7797 37.9994 17.8772 37.9994C24.9747 37.9994 31.1605 34.0903 34.4097 28.3037H31.5535C28.5797 32.6857 23.5635 35.5644 17.8766 35.5644H17.8772Z" fill="url(#paint1_linear_109_31)"/>
</g>
<defs>
<linearGradient id="paint0_linear_109_31" x1="1.25513" y1="4.92826" x2="34.4997" y2="4.92826" gradientUnits="userSpaceOnUse">
<stop stop-color="#972448"/>
<stop offset="0.15" stop-color="#98274A"/>
<stop offset="0.29" stop-color="#9E3252"/>
<stop offset="0.41" stop-color="#A74460"/>
<stop offset="0.54" stop-color="#B45E74"/>
<stop offset="0.65" stop-color="#C47C8B"/>
<stop offset="0.69" stop-color="#C17687" stop-opacity="0.94"/>
<stop offset="0.75" stop-color="#BA697C" stop-opacity="0.79"/>
<stop offset="0.84" stop-color="#AF536C" stop-opacity="0.54"/>
<stop offset="0.94" stop-color="#9F3555" stop-opacity="0.2"/>
<stop offset="1" stop-color="#972448" stop-opacity="0"/>
</linearGradient>
<linearGradient id="paint1_linear_109_31" x1="1.34473" y1="33.1519" x2="34.4102" y2="33.1519" gradientUnits="userSpaceOnUse">
<stop stop-color="#972448" stop-opacity="0"/>
<stop offset="0.06" stop-color="#9F3555" stop-opacity="0.2"/>
<stop offset="0.16" stop-color="#AF536C" stop-opacity="0.54"/>
<stop offset="0.25" stop-color="#BA697C" stop-opacity="0.79"/>
<stop offset="0.31" stop-color="#C17687" stop-opacity="0.94"/>
<stop offset="0.35" stop-color="#C47C8B"/>
<stop offset="0.46" stop-color="#B45E74"/>
<stop offset="0.59" stop-color="#A74460"/>
<stop offset="0.71" stop-color="#9E3252"/>
<stop offset="0.85" stop-color="#98274A"/>
<stop offset="1" stop-color="#972448"/>
</linearGradient>
<clipPath id="clip0_109_31">
<rect width="114.747" height="38" fill="white"/>
</clipPath>
</defs>
</svg>
