<svg width="76" height="25" viewBox="0 0 76 25" fill="none" xmlns="http://www.w3.org/2000/svg">
<path d="M30.7951 10.7907C30.3394 10.7907 29.9093 10.7034 29.5043 10.5293C29.0998 10.3551 28.7445 10.1146 28.4385 9.80827L29.0501 9.08725C29.2898 9.32153 29.5644 9.51088 29.873 9.65493C30.1816 9.79898 30.4979 9.87138 30.8217 9.87138C31.2174 9.87138 31.5216 9.7845 31.7346 9.61001C31.9472 9.43588 32.0539 9.21052 32.0539 8.93392C32.0539 8.72972 32.0091 8.56599 31.9191 8.44273C31.8291 8.31946 31.7046 8.21588 31.5457 8.1316C31.3867 8.04769 31.2052 7.96044 31.0014 7.87022L30.0841 7.4737C29.8681 7.38349 29.657 7.26505 29.4502 7.11765C29.2435 6.97063 29.0724 6.78425 28.9375 6.55889C28.8027 6.33353 28.7352 6.05879 28.7352 5.73429C28.7352 5.38604 28.8282 5.07343 29.0142 4.79683C29.1998 4.5206 29.4577 4.30267 29.7877 4.14339C30.1175 3.98412 30.492 3.90466 30.9118 3.90466C31.3015 3.90466 31.6701 3.98003 32.018 4.13003C32.3655 4.28039 32.6626 4.48459 32.9083 4.743L32.3777 5.4098C32.1677 5.22379 31.9447 5.07788 31.7079 4.97281C31.4708 4.86774 31.2056 4.81502 30.9121 4.81502C30.5706 4.81502 30.3005 4.89151 30.1027 5.04484C29.9048 5.19818 29.8059 5.40386 29.8059 5.66227C29.8059 5.85459 29.8567 6.01238 29.9589 6.13564C30.0608 6.2589 30.1942 6.361 30.359 6.44194C30.5239 6.52288 30.6932 6.59973 30.8673 6.67176L31.7757 7.05936C32.0395 7.1674 32.2733 7.29958 32.4774 7.45588C32.6812 7.61219 32.8401 7.80154 32.9542 8.02356C33.0679 8.24595 33.125 8.52255 33.125 8.85261C33.125 9.20718 33.032 9.53018 32.846 9.82163C32.66 10.1131 32.3933 10.3474 32.0454 10.5244C31.6975 10.7015 31.2811 10.7903 30.7954 10.7903L30.7951 10.7907Z" fill="white"/>
<path d="M35.4539 10.7907C35.172 10.7907 34.9219 10.7305 34.703 10.6102C34.484 10.4899 34.3117 10.3217 34.1858 10.1057C34.0598 9.88921 33.9968 9.63711 33.9968 9.34864C33.9968 8.814 34.2321 8.40078 34.703 8.10933C35.1735 7.81788 35.9244 7.61516 36.9558 7.50081C36.9499 7.30849 36.9199 7.1314 36.8658 6.96915C36.8117 6.8069 36.7172 6.67622 36.5824 6.57709C36.4475 6.47796 36.2571 6.42821 36.0111 6.42821C35.7532 6.42821 35.5043 6.47944 35.2646 6.58154C35.0245 6.68364 34.7971 6.80096 34.5811 6.93314L34.1943 6.22995C34.368 6.12191 34.5599 6.01795 34.77 5.91882C34.9797 5.81969 35.2046 5.73838 35.4446 5.67564C35.6843 5.61252 35.9333 5.58096 36.1912 5.58096C36.605 5.58096 36.9436 5.66376 37.2074 5.82897C37.4711 5.99419 37.6675 6.23329 37.7964 6.54553C37.9253 6.85814 37.9898 7.23647 37.9898 7.68125V10.6644H37.1444L37.0636 10.0967H37.0277C36.8058 10.2891 36.5631 10.4528 36.2993 10.5879C36.0356 10.7231 35.7536 10.7907 35.4539 10.7907ZM35.7684 9.96123C35.9844 9.96123 36.1852 9.91148 36.3712 9.81235C36.5568 9.71323 36.7521 9.56769 36.9558 9.37537V8.16762C36.4701 8.22182 36.0833 8.30128 35.7955 8.40635C35.5076 8.51142 35.3024 8.63468 35.1794 8.77576C35.0564 8.91685 34.9949 9.08095 34.9949 9.26696C34.9949 9.51348 35.0697 9.69058 35.2198 9.79862C35.3694 9.90666 35.5524 9.96086 35.7684 9.96086V9.96123Z" fill="white"/>
<path d="M39.4556 10.6644V5.69829H40.301L40.391 6.40111H40.4092C40.6252 6.17278 40.8574 5.97897 41.106 5.8197C41.3546 5.66042 41.6351 5.58097 41.947 5.58097C42.3127 5.58097 42.6035 5.66079 42.8195 5.8197C43.0355 5.97897 43.1974 6.20285 43.3052 6.49096C43.5508 6.22661 43.8042 6.00867 44.065 5.83752C44.3258 5.66636 44.6092 5.5806 44.9149 5.5806C45.4306 5.5806 45.8126 5.75027 46.0615 6.08961C46.3101 6.42933 46.435 6.91421 46.435 7.54537V10.6641H45.3917V7.6716C45.3917 7.24501 45.3257 6.9402 45.1939 6.75679C45.062 6.57338 44.8549 6.48205 44.5733 6.48205C44.4055 6.48205 44.2299 6.53625 44.0472 6.64429C43.8642 6.75233 43.6679 6.92089 43.4582 7.14922V10.6644H42.4238V7.67197C42.4238 7.24538 42.3579 6.94057 42.226 6.75716C42.0941 6.57375 41.8844 6.48242 41.5965 6.48242C41.4346 6.48242 41.2605 6.53662 41.0749 6.64466C40.8889 6.7527 40.6941 6.92126 40.4903 7.14959V10.6648H39.4559L39.4556 10.6644Z" fill="white"/>
<path d="M47.9365 10.6644V3.48105H48.9527V8.10488H48.9887L50.9044 5.69829H52.0555L50.3828 7.72618L52.2444 10.6644H51.1204L49.7804 8.42009L48.9531 9.37537V10.6641H47.9369L47.9365 10.6644Z" fill="white"/>
<path d="M53.8995 10.6644L52.5684 5.69827H53.6116L54.2681 8.38406C54.3159 8.62427 54.3611 8.8604 54.403 9.0917C54.4448 9.32301 54.4896 9.55876 54.5378 9.79935H54.5826C54.6304 9.55913 54.6801 9.32301 54.7308 9.0917C54.7816 8.8604 54.8372 8.62464 54.8972 8.38406L55.5988 5.69827H56.5521L57.2627 8.38406C57.3227 8.62427 57.3797 8.8604 57.4334 9.0917C57.4875 9.32301 57.5413 9.55876 57.5953 9.79935H57.6402C57.688 9.55913 57.7346 9.32301 57.7795 9.0917C57.8243 8.8604 57.8706 8.62464 57.9188 8.38406L58.5575 5.69827H59.5377L58.2518 10.6644H57.0107L56.3813 8.2129C56.3213 7.97863 56.2672 7.74436 56.2194 7.51008C56.1712 7.27581 56.1205 7.03225 56.0664 6.78016H56.0216C55.9675 7.03263 55.9182 7.27729 55.8734 7.51454C55.8285 7.75215 55.7759 7.98791 55.7159 8.22218L55.1043 10.6648H53.8991L53.8995 10.6644Z" fill="white"/>
<path d="M61.598 10.7907C61.316 10.7907 61.0659 10.7305 60.847 10.6102C60.628 10.4899 60.4558 10.3217 60.3298 10.1057C60.2038 9.88921 60.1409 9.63711 60.1409 9.34864C60.1409 8.814 60.3761 8.40078 60.847 8.10933C61.3175 7.81788 62.0685 7.61516 63.0999 7.50081C63.0939 7.30849 63.0639 7.1314 63.0098 6.96915C62.9557 6.8069 62.8613 6.67622 62.7264 6.57709C62.5916 6.47796 62.4011 6.42821 62.1551 6.42821C61.8973 6.42821 61.6483 6.47944 61.4086 6.58154C61.1686 6.68364 60.9411 6.80096 60.7251 6.93314L60.3383 6.22995C60.5121 6.12191 60.704 6.01795 60.9141 5.91882C61.1237 5.81969 61.3486 5.73838 61.5887 5.67564C61.8284 5.61252 62.0773 5.58096 62.3352 5.58096C62.749 5.58096 63.0876 5.66376 63.3514 5.82897C63.6152 5.99419 63.8115 6.23329 63.9405 6.54553C64.0694 6.85814 64.1339 7.23647 64.1339 7.68125V10.6644H63.2884L63.2077 10.0967H63.1717C62.9498 10.2891 62.7072 10.4528 62.4434 10.5879C62.1796 10.7231 61.8977 10.7907 61.598 10.7907ZM61.9129 9.96123C62.1288 9.96123 62.3296 9.91148 62.5156 9.81235C62.7012 9.71323 62.8965 9.56769 63.1002 9.37537V8.16762C62.6145 8.22182 62.2278 8.30128 61.9399 8.40635C61.652 8.51142 61.4468 8.63468 61.3238 8.77576C61.2008 8.91685 61.1393 9.08095 61.1393 9.26696C61.1393 9.51348 61.2141 9.69058 61.3642 9.79862C61.5139 9.90666 61.6969 9.96086 61.9129 9.96086V9.96123Z" fill="white"/>
<path d="M65.6001 10.6644V5.69829H66.4455L66.5355 6.39219H66.5537C66.7815 6.1698 67.0272 5.97934 67.2913 5.81969C67.5551 5.66042 67.8548 5.58096 68.1908 5.58096C68.7184 5.58096 69.1037 5.75063 69.3463 6.08998C69.589 6.42969 69.7105 6.91457 69.7105 7.54574V10.6644H68.6762V7.67197C68.6762 7.24538 68.6102 6.94056 68.4783 6.75715C68.3464 6.57375 68.1334 6.48241 67.8396 6.48241C67.6118 6.48241 67.4091 6.5381 67.2324 6.64911C67.0553 6.7605 66.856 6.9272 66.6345 7.14922V10.6644H65.6001Z" fill="white"/>
<path d="M72.9118 12.8906C72.5161 12.8906 72.1623 12.8408 71.8504 12.7417C71.5384 12.6426 71.2943 12.4966 71.1176 12.3047C70.9405 12.1124 70.8523 11.8722 70.8523 11.5837C70.8523 11.3732 70.9153 11.1749 71.0412 10.9889C71.1672 10.8025 71.3439 10.6407 71.5718 10.5022V10.4662C71.4458 10.3823 71.3395 10.2724 71.2524 10.1372C71.1653 10.0021 71.122 9.83537 71.122 9.63711C71.122 9.43885 71.1805 9.26027 71.2972 9.10099C71.4143 8.94172 71.5414 8.814 71.6796 8.71784V8.68183C71.5054 8.54965 71.3528 8.36958 71.2209 8.14088C71.089 7.91255 71.0231 7.65117 71.0231 7.35675C71.0231 6.98437 71.1116 6.66433 71.2883 6.39701C71.4651 6.1297 71.6988 5.92698 71.9897 5.7885C72.2805 5.65039 72.5969 5.58133 72.9384 5.58133C73.0822 5.58133 73.2156 5.59172 73.3386 5.61289C73.4616 5.63405 73.5679 5.66227 73.6579 5.69865H75.4117V6.48278H74.4763C74.5663 6.58488 74.6411 6.71408 74.7012 6.87039C74.7612 7.02669 74.7912 7.19785 74.7912 7.38423C74.7912 7.74473 74.7086 8.05289 74.5437 8.30795C74.3788 8.56339 74.1555 8.75868 73.8735 8.89382C73.5916 9.02896 73.28 9.09654 72.9381 9.09654C72.8303 9.09654 72.7147 9.08317 72.5917 9.05607C72.4687 9.02897 72.3535 8.99444 72.2453 8.95248C72.1671 9.01857 72.1026 9.0906 72.0519 9.16893C72.0008 9.24727 71.9756 9.3464 71.9756 9.46632C71.9756 9.61038 72.0341 9.7277 72.1508 9.81792C72.2675 9.90814 72.485 9.95306 72.8028 9.95306H73.7201C74.3018 9.95306 74.7423 10.0477 75.0424 10.2371C75.3421 10.4264 75.4921 10.7312 75.4921 11.1519C75.4921 11.4705 75.3873 11.7615 75.1772 12.0262C74.9672 12.2906 74.6689 12.5007 74.2825 12.657C73.8958 12.8133 73.4386 12.8913 72.911 12.8913L72.9118 12.8906ZM73.0555 12.2056C73.3493 12.2056 73.6009 12.1636 73.8109 12.0793C74.0206 11.9951 74.1855 11.8855 74.3055 11.7504C74.4255 11.6152 74.4855 11.4723 74.4855 11.3223C74.4855 11.1118 74.4074 10.9692 74.2518 10.8942C74.0958 10.8189 73.868 10.7817 73.5683 10.7817H72.8217C72.7017 10.7817 72.588 10.7758 72.4798 10.7635C72.372 10.7513 72.2638 10.7335 72.156 10.7093C72.0123 10.8174 71.907 10.9347 71.8411 11.0609C71.7752 11.1872 71.7422 11.3101 71.7422 11.4304C71.7422 11.6706 71.8592 11.8599 72.093 11.998C72.3268 12.1361 72.6476 12.2052 73.0555 12.2052V12.2056ZM72.9388 8.42008C73.1066 8.42008 73.2626 8.37812 73.4064 8.29385C73.5501 8.20994 73.6642 8.08816 73.7479 7.92888C73.8317 7.76961 73.8739 7.57877 73.8739 7.35638C73.8739 7.13399 73.832 6.94613 73.7479 6.79316C73.6638 6.63983 73.5516 6.52139 73.4108 6.43711C73.27 6.3532 73.1126 6.31088 72.9384 6.31088C72.7643 6.31088 72.6072 6.35283 72.4661 6.43711C72.3253 6.52139 72.2127 6.63983 72.129 6.79316C72.0449 6.9465 72.003 7.13436 72.003 7.35638C72.003 7.5784 72.0463 7.76961 72.1334 7.92888C72.2201 8.08816 72.3342 8.20994 72.475 8.29385C72.6158 8.37812 72.7702 8.42008 72.9381 8.42008H72.9388Z" fill="white"/>
<path d="M28.9065 21.48V14.8375H29.9498V20.5878H32.7557V21.48H28.9065Z" fill="white"/>
<path d="M35.004 21.6062C34.722 21.6062 34.472 21.5461 34.253 21.4258C34.034 21.3055 33.8618 21.1373 33.7358 20.9212C33.6099 20.7048 33.5469 20.4527 33.5469 20.1642C33.5469 19.6296 33.7821 19.2163 34.253 18.9249C34.7235 18.6334 35.4745 18.4307 36.5059 18.3164C36.4999 18.124 36.4699 17.9469 36.4158 17.7847C36.3617 17.6225 36.2673 17.4918 36.1324 17.3926C35.9976 17.2935 35.8071 17.2438 35.5611 17.2438C35.3033 17.2438 35.0543 17.295 34.8146 17.3971C34.5746 17.4992 34.3471 17.6165 34.1311 17.7487L33.7443 17.0455C33.9181 16.9375 34.11 16.8335 34.3201 16.7344C34.5297 16.6352 34.7546 16.5539 34.9947 16.4912C35.2344 16.4281 35.4833 16.3965 35.7412 16.3965C36.155 16.3965 36.4936 16.4793 36.7574 16.6445C37.0212 16.8097 37.2175 17.0488 37.3465 17.3611C37.4754 17.6737 37.5399 18.052 37.5399 18.4968V21.48H36.6944L36.6137 20.9123H36.5777C36.3558 21.1046 36.1132 21.2684 35.8494 21.4035C35.5856 21.5386 35.3037 21.6062 35.004 21.6062ZM35.3189 20.7768C35.5348 20.7768 35.7356 20.727 35.9216 20.6279C36.1072 20.5288 36.3025 20.3832 36.5062 20.1909V18.9832C36.0205 19.0374 35.6338 19.1168 35.3459 19.2219C35.058 19.327 34.8528 19.4502 34.7298 19.5913C34.6068 19.7324 34.5453 19.8965 34.5453 20.0825C34.5453 20.329 34.6201 20.5061 34.7702 20.6142C34.9199 20.7222 35.1029 20.7764 35.3189 20.7764V20.7768Z" fill="white"/>
<path d="M41.3087 21.6062C41.0868 21.6062 40.856 21.549 40.6163 21.4351C40.3762 21.3211 40.1547 21.1648 39.9509 20.9665H39.915L39.825 21.4803H39.0066V14.297H40.041V16.1986L40.005 17.0459C40.221 16.8535 40.4563 16.6976 40.7111 16.5773C40.966 16.457 41.222 16.3969 41.4803 16.3969C41.9 16.3969 42.2553 16.5005 42.5461 16.708C42.8369 16.9152 43.0588 17.2081 43.2115 17.5868C43.3641 17.9655 43.4408 18.4099 43.4408 18.9208C43.4408 19.4855 43.3404 19.9693 43.1396 20.3717C42.9388 20.7742 42.6765 21.0809 42.3527 21.291C42.0289 21.5011 41.6811 21.6066 41.3095 21.6066L41.3087 21.6062ZM41.1109 20.7319C41.3506 20.7319 41.5651 20.6628 41.754 20.5247C41.943 20.3866 42.0927 20.1839 42.2038 19.9162C42.3146 19.6489 42.3701 19.3229 42.3701 18.9382C42.3701 18.59 42.3298 18.2907 42.2486 18.0416C42.1675 17.7925 42.043 17.6002 41.8752 17.4647C41.7074 17.3295 41.4854 17.2619 41.2098 17.2619C41.0179 17.2619 40.826 17.3113 40.6341 17.4108C40.4422 17.51 40.2444 17.6618 40.0406 17.866V20.2904C40.2262 20.4527 40.4137 20.567 40.6026 20.6327C40.7915 20.6988 40.9609 20.7319 41.1109 20.7319Z" fill="white"/>
<path d="M46.0843 21.6062C45.7123 21.6062 45.4171 21.5327 45.1985 21.3853C44.9795 21.2383 44.8221 21.0337 44.7265 20.7723C44.6305 20.5109 44.5827 20.2061 44.5827 19.8575V17.3518H43.8633V16.5766L44.6368 16.5135L44.7539 15.1435H45.6171V16.5135H46.903V17.3518H45.6171V19.8664C45.6171 20.1608 45.6742 20.3847 45.7879 20.5377C45.9016 20.691 46.0876 20.7675 46.3455 20.7675C46.4292 20.7675 46.5192 20.7556 46.6152 20.7315C46.7111 20.7074 46.7949 20.6806 46.8671 20.6505L47.056 21.4165C46.9241 21.4584 46.7756 21.5004 46.6107 21.5427C46.4459 21.5847 46.2703 21.6058 46.0847 21.6058L46.0843 21.6062Z" fill="white"/>
<path d="M47.9817 21.48V16.5138H48.8271L48.9171 17.406H48.9353C49.1153 17.0875 49.328 16.8398 49.574 16.6623C49.8196 16.4852 50.0775 16.3965 50.3475 16.3965C50.4676 16.3965 50.5695 16.4054 50.6532 16.4236C50.7369 16.4414 50.818 16.4656 50.8958 16.4956L50.7162 17.406C50.6261 17.3759 50.5454 17.3551 50.4735 17.3429C50.4016 17.331 50.3146 17.3247 50.2127 17.3247C50.0149 17.3247 49.8048 17.4045 49.5833 17.5634C49.3613 17.7227 49.1724 18.0004 49.0168 18.3973V21.4796H47.9824L47.9817 21.48Z" fill="white"/>
<path d="M53.5938 21.6062C53.144 21.6062 52.7361 21.5026 52.3708 21.2951C52.0052 21.0879 51.7143 20.7905 51.4984 20.4029C51.2824 20.0153 51.1746 19.5482 51.1746 19.0014C51.1746 18.5989 51.2375 18.2369 51.3635 17.9154C51.4895 17.5939 51.6603 17.3206 51.8762 17.0952C52.0922 16.8699 52.3349 16.6972 52.6046 16.577C52.8743 16.4567 53.1499 16.3965 53.4319 16.3965C53.8694 16.3965 54.238 16.4942 54.5381 16.6894C54.8378 16.8847 55.0657 17.158 55.2216 17.5096C55.3776 17.8612 55.4554 18.2711 55.4554 18.74C55.4554 18.8421 55.451 18.9397 55.4421 19.0329C55.4332 19.1261 55.4195 19.2056 55.4017 19.2716H52.1908C52.2208 19.5843 52.303 19.8531 52.4383 20.0784C52.5731 20.3038 52.7498 20.4783 52.9688 20.6012C53.1877 20.7244 53.4378 20.7861 53.7197 20.7861C53.9416 20.7861 54.1484 20.753 54.3403 20.6869C54.5322 20.6209 54.7182 20.5306 54.8978 20.4167L55.2576 21.0745C55.0297 21.2249 54.7763 21.3511 54.4977 21.4532C54.2191 21.5553 53.9176 21.6066 53.5938 21.6066V21.6062ZM52.1819 18.5506H54.5563C54.5563 18.13 54.4618 17.8025 54.2728 17.5683C54.0839 17.334 53.8098 17.2167 53.45 17.2167C53.2463 17.2167 53.0544 17.2679 52.8743 17.37C52.6943 17.4721 52.5431 17.6225 52.4201 17.8207C52.2971 18.019 52.2178 18.2622 52.1819 18.5506Z" fill="white"/>
<path d="M58.6841 21.6062C58.2343 21.6062 57.8264 21.5026 57.4612 21.2951C57.0955 21.0879 56.8047 20.7905 56.5887 20.4029C56.3727 20.0153 56.2649 19.5482 56.2649 19.0014C56.2649 18.5989 56.3279 18.2369 56.4538 17.9154C56.5798 17.5939 56.7506 17.3206 56.9666 17.0952C57.1826 16.8699 57.4252 16.6972 57.6949 16.577C57.9646 16.4567 58.2403 16.3965 58.5222 16.3965C58.9597 16.3965 59.3284 16.4942 59.6284 16.6894C59.9282 16.8847 60.156 17.158 60.312 17.5096C60.4679 17.8612 60.5457 18.2711 60.5457 18.74C60.5457 18.8421 60.5413 18.9397 60.5324 19.0329C60.5235 19.1261 60.5098 19.2056 60.492 19.2716H57.2811C57.3111 19.5843 57.3934 19.8531 57.5286 20.0784C57.6634 20.3038 57.8402 20.4783 58.0591 20.6012C58.2781 20.7244 58.5281 20.7861 58.8101 20.7861C59.032 20.7861 59.2387 20.753 59.4306 20.6869C59.6225 20.6209 59.8085 20.5306 59.9882 20.4167L60.3479 21.0745C60.1201 21.2249 59.8667 21.3511 59.5881 21.4532C59.3095 21.5553 59.0079 21.6066 58.6841 21.6066V21.6062ZM57.2722 18.5506H59.6466C59.6466 18.13 59.5521 17.8025 59.3632 17.5683C59.1742 17.334 58.9001 17.2167 58.5404 17.2167C58.3366 17.2167 58.1447 17.2679 57.9646 17.37C57.7846 17.4721 57.6334 17.6225 57.5104 17.8207C57.3874 18.019 57.3082 18.2622 57.2722 18.5506Z" fill="white"/>
<path d="M11.7541 9.21424C12.6247 8.34027 13.6413 8.18396 14.7442 8.59422C15.6207 8.9202 16.0734 9.62079 16.2209 10.5252C16.2594 10.7613 16.2642 11.0053 16.2646 11.2455C16.2679 13.0395 16.2664 14.8335 16.2664 16.6278C16.2664 16.7076 16.2664 16.7875 16.2664 16.8814H14.5193C14.5152 16.8079 14.5074 16.7303 14.5074 16.6527C14.5063 14.8279 14.5085 13.0027 14.503 11.1779C14.5022 10.9763 14.4837 10.7684 14.4311 10.575C14.3177 10.1602 14.0051 9.93971 13.5831 9.94194C13.1304 9.94417 12.8195 10.1643 12.7036 10.5876C12.6602 10.7461 12.6384 10.9158 12.638 11.0806C12.6336 12.9366 12.635 14.7926 12.635 16.6482C12.635 16.7217 12.635 16.7953 12.635 16.8821H10.8671C10.8671 16.8108 10.8671 16.7392 10.8671 16.6675C10.8671 14.793 10.8675 12.9184 10.8668 11.0442C10.8668 10.9455 10.8686 10.8449 10.8494 10.7487C10.7345 10.1718 10.374 9.89404 9.81758 9.94677C9.35486 9.9902 9.0181 10.3871 9.00883 10.9191C9.00068 11.4077 9.00698 11.8967 9.00698 12.3853C9.00698 13.8206 9.00698 15.2556 9.00698 16.6909V16.8844H7.25056C7.24685 16.8238 7.24018 16.77 7.24018 16.7162C7.24018 14.7986 7.21833 12.8802 7.24797 10.9629C7.26723 9.71101 7.93668 8.72899 9.17444 8.46502C10.1147 8.26453 10.9779 8.42492 11.6774 9.14853C11.6985 9.17044 11.7233 9.18863 11.7533 9.21462L11.7541 9.21424Z" fill="white"/>
<path d="M0 15.8493C0.320091 15.5103 0.630549 15.1769 0.950269 14.8524C0.975832 14.8264 1.07549 14.8461 1.12291 14.8743C1.58637 15.1524 2.07059 15.3837 2.6074 15.4702C3.14422 15.5567 3.66511 15.5088 4.13562 15.1958C4.67355 14.8379 4.69911 14.1938 4.14525 13.8637C3.76884 13.6394 3.34317 13.4891 2.92638 13.3443C2.29843 13.126 1.65936 12.9455 1.07549 12.6099C-0.299714 11.8191 -0.273781 9.91484 0.935079 9.06314C1.71641 8.51291 2.58777 8.34324 3.51544 8.41304C4.44756 8.48284 5.25927 8.86451 6.0117 9.45C5.79349 9.85803 5.57676 10.2631 5.35522 10.6778C5.07773 10.5345 4.81655 10.3867 4.54462 10.2627C4.09227 10.0567 3.6188 9.8959 3.11755 9.93117C2.81672 9.95234 2.50071 10.0147 2.22878 10.1398C1.75235 10.3589 1.71382 10.9399 2.1269 11.2648C2.46885 11.5336 2.88082 11.6513 3.28574 11.782C3.9363 11.9917 4.58908 12.1867 5.19851 12.513C6.79859 13.3695 6.64781 15.4843 5.33707 16.3568C4.70022 16.7808 3.99669 16.9627 3.24129 16.9824C2.48033 17.0024 1.73901 16.9137 1.03918 16.5948C0.649443 16.4173 0.299344 16.1812 0 15.8496L0 15.8493Z" fill="white"/>
<path d="M23.7459 15.3867C23.5926 15.8868 23.4555 16.3468 23.3058 16.8027C23.2914 16.8469 23.1976 16.8899 23.1402 16.8907C22.48 16.897 21.8195 16.8951 21.1593 16.8951C20.2027 16.8951 19.2462 16.8951 18.2896 16.8944C17.8728 16.894 17.7076 16.7258 17.7061 16.3093C17.6983 14.0025 17.6902 11.6958 17.6824 9.38949C17.6813 9.10621 17.6824 8.82256 17.6824 8.52591H19.4407C19.4407 8.81253 19.4407 9.0999 19.4407 9.38726C19.4421 11.2488 19.4407 13.1104 19.4473 14.9723C19.4492 15.4891 19.4162 15.3833 19.8611 15.3855C21.0585 15.3919 22.2559 15.3874 23.4533 15.3874C23.5329 15.3874 23.6122 15.3874 23.7463 15.3874L23.7459 15.3867Z" fill="white"/>
<path d="M11.7615 1.60204C15.5485 1.60204 18.8828 3.54231 20.83 6.48464H22.6976C20.5762 2.6197 16.4743 0 11.7615 0C7.04868 0 2.94715 2.6197 0.825806 6.48464H2.69337C4.64022 3.54231 7.9745 1.60204 11.7615 1.60204Z" fill="white"/>
<path d="M11.7614 23.3979C8.02 23.3979 4.72017 21.5041 2.76332 18.6212H0.884644C3.02266 22.4282 7.09196 25 11.7614 25C16.4309 25 20.5006 22.4282 22.6382 18.6212H20.7592C18.8027 21.5041 15.5025 23.3979 11.7611 23.3979H11.7614Z" fill="white"/>
</svg>
