<svg width="32" height="32" viewBox="0 0 32 32" fill="none" xmlns="http://www.w3.org/2000/svg">
<g clip-path="url(#clip0_116_392)">
<rect width="32" height="32" fill="white"/>
<path d="M15.8398 11.794C17.013 10.6754 18.383 10.4753 19.8693 11.0004C21.0505 11.4177 21.6606 12.3144 21.8593 13.4721C21.9112 13.7743 21.9177 14.0865 21.9182 14.394C21.9227 16.6903 21.9207 18.9865 21.9207 21.2833C21.9207 21.3854 21.9207 21.4876 21.9207 21.6079H19.5662C19.5607 21.5138 19.5502 21.4144 19.5502 21.3151C19.5487 18.9794 19.5517 16.6432 19.5442 14.3075C19.5432 14.0495 19.5183 13.7833 19.4474 13.5357C19.2946 13.0049 18.8732 12.7226 18.3046 12.7255C17.6945 12.7283 17.2756 13.0101 17.1194 13.5519C17.061 13.7548 17.0315 13.972 17.031 14.183C17.025 16.5586 17.027 18.9343 17.027 21.3094C17.027 21.4035 17.027 21.4976 17.027 21.6088H14.6446C14.6446 21.5176 14.6446 21.4258 14.6446 21.3341C14.6446 18.9347 14.6451 16.5353 14.6441 14.1364C14.6441 14.01 14.6466 13.8812 14.6206 13.7581C14.4659 13.0196 13.9801 12.6642 13.2302 12.7317C12.6066 12.7873 12.1528 13.2953 12.1403 13.9763C12.1294 14.6017 12.1379 15.2275 12.1379 15.8529C12.1379 17.6901 12.1379 19.5269 12.1379 21.3641V21.6117H9.7709C9.76591 21.5342 9.75692 21.4653 9.75692 21.3964C9.75692 18.9419 9.72747 16.4864 9.76741 14.0323C9.79337 12.4299 10.6955 11.1729 12.3635 10.8351C13.6306 10.5784 14.7939 10.7837 15.7365 11.7099C15.7649 11.738 15.7984 11.7613 15.8388 11.7945L15.8398 11.794Z" fill="white"/>
<path d="M0 20.2867C0.431353 19.8529 0.849725 19.4261 1.28058 19.0108C1.31503 18.9775 1.44933 19.0027 1.51323 19.0388C2.13779 19.3947 2.79031 19.6908 3.51373 19.8015C4.23714 19.9123 4.93909 19.851 5.57314 19.4503C6.29805 18.9922 6.3325 18.1677 5.58612 17.7452C5.07888 17.4582 4.50524 17.2657 3.94358 17.0804C3.09735 16.801 2.23615 16.57 1.44933 16.1404C-0.403894 15.1282 -0.368947 12.6908 1.26011 11.6006C2.31303 10.8964 3.48727 10.6792 4.73739 10.7685C5.99351 10.8579 7.08737 11.3464 8.10135 12.0958C7.80729 12.6181 7.51523 13.1365 7.21667 13.6674C6.84274 13.4839 6.49076 13.2948 6.12431 13.1361C5.51473 12.8723 4.87668 12.6666 4.2012 12.7117C3.79581 12.7388 3.36995 12.8186 3.00349 12.9788C2.36146 13.2592 2.30954 14.0029 2.8662 14.4187C3.32701 14.7628 3.88218 14.9134 4.42786 15.0807C5.30454 15.3492 6.18422 15.5987 7.00549 16.0164C9.16176 17.1127 8.95856 19.8196 7.19221 20.9364C6.334 21.4791 5.38592 21.7119 4.36795 21.7371C3.34249 21.7628 2.34348 21.6492 1.4004 21.241C0.875187 21.0138 0.403395 20.7116 0 20.2872L0 20.2867Z" fill="white"/>
<path d="M32 19.6946C31.7933 20.3347 31.6086 20.9235 31.4069 21.5071C31.3875 21.5636 31.2611 21.6188 31.1838 21.6197C30.2941 21.6278 29.4039 21.6254 28.5143 21.6254C27.2252 21.6254 25.9361 21.6254 24.6471 21.6245C24.0854 21.624 23.8627 21.4087 23.8607 20.8755C23.8503 17.923 23.8393 14.9704 23.8288 12.0183C23.8273 11.6557 23.8288 11.2927 23.8288 10.913H26.1982C26.1982 11.2798 26.1982 11.6477 26.1982 12.0155C26.2002 14.3982 26.1982 16.781 26.2072 19.1642C26.2097 19.8257 26.1653 19.6903 26.7649 19.6932C28.3785 19.7012 29.992 19.6955 31.6056 19.6955C31.713 19.6955 31.8198 19.6955 32.0005 19.6955L32 19.6946Z" fill="white"/>
<path d="M15.8497 2.05058C20.953 2.05058 25.4463 4.53409 28.0704 8.30022H30.5871C27.7284 3.35316 22.2007 0 15.8497 0C9.49871 0 3.9715 3.35316 1.11279 8.30022H3.62952C6.25308 4.53409 10.7463 2.05058 15.8497 2.05058Z" fill="white"/>
<path d="M15.8498 29.9489C10.8078 29.9489 6.36101 27.5248 3.72396 23.8347H1.19226C4.07344 28.7076 9.55721 31.9995 15.8498 31.9995C22.1423 31.9995 27.6266 28.7076 30.5073 23.8347H27.9751C25.3385 27.5248 20.8912 29.9489 15.8493 29.9489H15.8498Z" fill="white"/>
</g>
<defs>
<clipPath id="clip0_116_392">
<rect width="32" height="32" fill="white"/>
</clipPath>
</defs>
</svg>
