<svg width="76" height="25" viewBox="0 0 76 25" fill="none" xmlns="http://www.w3.org/2000/svg">
<path d="M30.7949 10.7907C30.3393 10.7907 29.9091 10.7034 29.5042 10.5293C29.0997 10.3551 28.7444 10.1146 28.4384 9.80826L29.05 9.08725C29.2897 9.32153 29.5642 9.51088 29.8728 9.65493C30.1814 9.79898 30.4978 9.87138 30.8216 9.87138C31.2173 9.87138 31.5214 9.7845 31.7345 9.61001C31.9471 9.43588 32.0538 9.21052 32.0538 8.93392C32.0538 8.72972 32.009 8.56599 31.919 8.44273C31.8289 8.31946 31.7045 8.21588 31.5455 8.1316C31.3866 8.04769 31.2051 7.96044 31.0013 7.87022L30.084 7.4737C29.868 7.38348 29.6568 7.26505 29.4501 7.11765C29.2434 6.97063 29.0722 6.78425 28.9374 6.55889C28.8025 6.33353 28.7351 6.05879 28.7351 5.73429C28.7351 5.38604 28.8281 5.07343 29.0141 4.79683C29.1997 4.5206 29.4575 4.30267 29.7876 4.14339C30.1173 3.98412 30.4919 3.90466 30.9116 3.90466C31.3014 3.90466 31.67 3.98003 32.0179 4.13003C32.3654 4.28039 32.6625 4.48459 32.9081 4.743L32.3776 5.4098C32.1676 5.22379 31.9445 5.07788 31.7078 4.97281C31.4707 4.86774 31.2054 4.81502 30.912 4.81502C30.5704 4.81502 30.3004 4.8915 30.1025 5.04484C29.9047 5.19818 29.8058 5.40386 29.8058 5.66227C29.8058 5.85459 29.8565 6.01238 29.9588 6.13564C30.0607 6.2589 30.194 6.361 30.3589 6.44194C30.5238 6.52288 30.6931 6.59973 30.8672 6.67176L31.7756 7.05936C32.0394 7.1674 32.2731 7.29958 32.4773 7.45588C32.681 7.61219 32.84 7.80154 32.9541 8.02356C33.0678 8.24595 33.1249 8.52255 33.1249 8.85261C33.1249 9.20717 33.0319 9.53018 32.8459 9.82163C32.6599 10.1131 32.3932 10.3474 32.0453 10.5244C31.6974 10.7015 31.281 10.7903 30.7953 10.7903L30.7949 10.7907Z" fill="#972448"/>
<path d="M35.4537 10.7907C35.1717 10.7907 34.9217 10.7305 34.7027 10.6102C34.4838 10.4899 34.3115 10.3217 34.1855 10.1057C34.0596 9.88921 33.9966 9.63711 33.9966 9.34863C33.9966 8.814 34.2318 8.40078 34.7027 8.10933C35.1732 7.81788 35.9242 7.61516 36.9556 7.50081C36.9496 7.30849 36.9196 7.1314 36.8655 6.96915C36.8115 6.8069 36.717 6.67622 36.5821 6.57709C36.4473 6.47796 36.2569 6.42821 36.0109 6.42821C35.753 6.42821 35.504 6.47944 35.2643 6.58154C35.0243 6.68364 34.7968 6.80096 34.5808 6.93314L34.194 6.22995C34.3678 6.12191 34.5597 6.01795 34.7698 5.91882C34.9795 5.81969 35.2043 5.73838 35.4444 5.67564C35.6841 5.61252 35.9331 5.58096 36.1909 5.58096C36.6047 5.58096 36.9433 5.66376 37.2071 5.82897C37.4709 5.99419 37.6673 6.23329 37.7962 6.54553C37.9251 6.85814 37.9896 7.23647 37.9896 7.68125V10.6644H37.1441L37.0634 10.0967H37.0274C36.8055 10.2891 36.5629 10.4528 36.2991 10.5879C36.0353 10.7231 35.7534 10.7907 35.4537 10.7907ZM35.7682 9.96123C35.9842 9.96123 36.185 9.91148 36.371 9.81235C36.5566 9.71322 36.7518 9.56769 36.9556 9.37537V8.16762C36.4699 8.22182 36.0831 8.30128 35.7952 8.40635C35.5074 8.51142 35.3021 8.63468 35.1791 8.77576C35.0561 8.91685 34.9946 9.08095 34.9946 9.26695C34.9946 9.51348 35.0695 9.69058 35.2195 9.79862C35.3692 9.90666 35.5522 9.96086 35.7682 9.96086V9.96123Z" fill="#972448"/>
<path d="M39.4556 10.6644V5.69829H40.301L40.391 6.40111H40.4092C40.6252 6.17278 40.8574 5.97897 41.106 5.8197C41.3546 5.66042 41.6351 5.58097 41.947 5.58097C42.3127 5.58097 42.6035 5.66079 42.8195 5.8197C43.0355 5.97897 43.1974 6.20285 43.3052 6.49096C43.5508 6.22661 43.8042 6.00867 44.065 5.83752C44.3258 5.66636 44.6092 5.5806 44.9149 5.5806C45.4306 5.5806 45.8126 5.75027 46.0615 6.08961C46.3101 6.42933 46.4349 6.91421 46.4349 7.54537V10.6641H45.3917V7.6716C45.3917 7.24501 45.3257 6.9402 45.1939 6.75679C45.062 6.57338 44.8549 6.48205 44.5733 6.48205C44.4055 6.48205 44.2299 6.53625 44.0472 6.64429C43.8642 6.75233 43.6679 6.92089 43.4582 7.14922V10.6644H42.4238V7.67197C42.4238 7.24538 42.3579 6.94057 42.226 6.75716C42.0941 6.57375 41.8844 6.48242 41.5965 6.48242C41.4346 6.48242 41.2605 6.53662 41.0749 6.64466C40.8889 6.7527 40.6941 6.92126 40.4903 7.14959V10.6648H39.4559L39.4556 10.6644Z" fill="#972448"/>
<path d="M47.9365 10.6644V3.48105H48.9527V8.10487H48.9887L50.9044 5.69829H52.0555L50.3828 7.72618L52.2444 10.6644H51.1204L49.7804 8.42008L48.9531 9.37537V10.6641H47.9369L47.9365 10.6644Z" fill="#972448"/>
<path d="M53.8992 10.6644L52.5681 5.69827H53.6114L54.2679 8.38406C54.3156 8.62427 54.3608 8.8604 54.4027 9.0917C54.4446 9.323 54.4894 9.55876 54.5376 9.79935H54.5824C54.6302 9.55913 54.6798 9.323 54.7306 9.0917C54.7813 8.8604 54.8369 8.62464 54.8969 8.38406L55.5986 5.69827H56.5518L57.2624 8.38406C57.3224 8.62427 57.3795 8.8604 57.4332 9.0917C57.4873 9.323 57.541 9.55876 57.5951 9.79935H57.6399C57.6877 9.55913 57.7344 9.323 57.7792 9.0917C57.824 8.8604 57.8704 8.62464 57.9185 8.38406L58.5572 5.69827H59.5375L58.2516 10.6644H57.0105L56.381 8.2129C56.321 7.97863 56.2669 7.74435 56.2191 7.51008C56.171 7.27581 56.1202 7.03225 56.0661 6.78016H56.0213C55.9672 7.03263 55.918 7.27729 55.8731 7.51454C55.8283 7.75215 55.7757 7.98791 55.7157 8.22218L55.104 10.6648H53.8989L53.8992 10.6644Z" fill="#972448"/>
<path d="M61.5977 10.7907C61.3158 10.7907 61.0657 10.7305 60.8468 10.6102C60.6278 10.4899 60.4555 10.3217 60.3296 10.1057C60.2036 9.88921 60.1406 9.63711 60.1406 9.34863C60.1406 8.814 60.3759 8.40078 60.8468 8.10933C61.3173 7.81788 62.0682 7.61516 63.0996 7.50081C63.0937 7.30849 63.0637 7.1314 63.0096 6.96915C62.9555 6.8069 62.861 6.67622 62.7262 6.57709C62.5913 6.47796 62.4009 6.42821 62.1549 6.42821C61.897 6.42821 61.6481 6.47944 61.4084 6.58154C61.1683 6.68364 60.9409 6.80096 60.7249 6.93314L60.3381 6.22995C60.5118 6.12191 60.7037 6.01795 60.9138 5.91882C61.1235 5.81969 61.3484 5.73838 61.5884 5.67564C61.8281 5.61252 62.0771 5.58096 62.3349 5.58096C62.7488 5.58096 63.0874 5.66376 63.3512 5.82897C63.6149 5.99419 63.8113 6.23329 63.9402 6.54553C64.0691 6.85814 64.1336 7.23647 64.1336 7.68125V10.6644H63.2882L63.2074 10.0967H63.1715C62.9496 10.2891 62.7069 10.4528 62.4431 10.5879C62.1794 10.7231 61.8974 10.7907 61.5977 10.7907ZM61.9126 9.96123C62.1286 9.96123 62.3294 9.91148 62.5154 9.81235C62.701 9.71322 62.8962 9.56769 63.1 9.37537V8.16762C62.6143 8.22182 62.2275 8.30128 61.9397 8.40635C61.6518 8.51142 61.4466 8.63468 61.3236 8.77576C61.2006 8.91685 61.1391 9.08095 61.1391 9.26695C61.1391 9.51348 61.2139 9.69058 61.3639 9.79862C61.5136 9.90666 61.6966 9.96086 61.9126 9.96086V9.96123Z" fill="#972448"/>
<path d="M65.6 10.6644V5.69829H66.4454L66.5354 6.39219H66.5536C66.7814 6.1698 67.027 5.97934 67.2912 5.81969C67.555 5.66042 67.8547 5.58096 68.1907 5.58096C68.7183 5.58096 69.1036 5.75063 69.3462 6.08998C69.5889 6.42969 69.7104 6.91457 69.7104 7.54574V10.6644H68.676V7.67197C68.676 7.24538 68.6101 6.94056 68.4782 6.75715C68.3463 6.57375 68.1333 6.48241 67.8395 6.48241C67.6117 6.48241 67.409 6.5381 67.2323 6.64911C67.0552 6.7605 66.8559 6.9272 66.6343 7.14922V10.6644H65.6Z" fill="#972448"/>
<path d="M72.9116 12.8906C72.516 12.8906 72.1622 12.8408 71.8502 12.7417C71.5383 12.6426 71.2942 12.4966 71.1174 12.3047C70.9403 12.1124 70.8522 11.8722 70.8522 11.5837C70.8522 11.3732 70.9152 11.1749 71.0411 10.9889C71.1671 10.8025 71.3438 10.6407 71.5716 10.5022V10.4662C71.4457 10.3823 71.3393 10.2724 71.2523 10.1372C71.1652 10.0021 71.1219 9.83537 71.1219 9.63711C71.1219 9.43885 71.1804 9.26027 71.2971 9.10099C71.4142 8.94172 71.5413 8.814 71.6794 8.71784V8.68182C71.5053 8.54965 71.3527 8.36958 71.2208 8.14088C71.0889 7.91255 71.023 7.65117 71.023 7.35675C71.023 6.98437 71.1115 6.66433 71.2882 6.39701C71.4649 6.1297 71.6987 5.92698 71.9895 5.7885C72.2804 5.65039 72.5967 5.58133 72.9383 5.58133C73.0821 5.58133 73.2154 5.59172 73.3384 5.61289C73.4614 5.63405 73.5678 5.66227 73.6578 5.69865H75.4116V6.48278H74.4762C74.5662 6.58488 74.641 6.71408 74.701 6.87039C74.7611 7.02669 74.7911 7.19785 74.7911 7.38423C74.7911 7.74473 74.7084 8.05289 74.5436 8.30795C74.3787 8.56339 74.1553 8.75868 73.8734 8.89382C73.5915 9.02896 73.2799 9.09654 72.9379 9.09654C72.8301 9.09654 72.7146 9.08317 72.5916 9.05607C72.4686 9.02896 72.3533 8.99444 72.2452 8.95248C72.167 9.01857 72.1025 9.0906 72.0518 9.16893C72.0006 9.24727 71.9755 9.3464 71.9755 9.46632C71.9755 9.61038 72.034 9.7277 72.1507 9.81792C72.2674 9.90814 72.4849 9.95306 72.8027 9.95306H73.72C74.3017 9.95306 74.7422 10.0477 75.0422 10.2371C75.342 10.4264 75.492 10.7312 75.492 11.1519C75.492 11.4705 75.3872 11.7615 75.1771 12.0262C74.967 12.2906 74.6688 12.5007 74.2824 12.657C73.8956 12.8133 73.4385 12.8913 72.9109 12.8913L72.9116 12.8906ZM73.0554 12.2056C73.3492 12.2056 73.6007 12.1636 73.8108 12.0793C74.0205 11.9951 74.1853 11.8855 74.3054 11.7504C74.4254 11.6152 74.4854 11.4723 74.4854 11.3223C74.4854 11.1118 74.4073 10.9692 74.2517 10.8942C74.0957 10.8189 73.8678 10.7817 73.5681 10.7817H72.8216C72.7016 10.7817 72.5879 10.7758 72.4797 10.7635C72.3719 10.7513 72.2637 10.7335 72.1559 10.7093C72.0121 10.8174 71.9069 10.9347 71.841 11.0609C71.775 11.1872 71.7421 11.3101 71.7421 11.4304C71.7421 11.6706 71.8591 11.8599 72.0929 11.998C72.3267 12.1361 72.6475 12.2052 73.0554 12.2052V12.2056ZM72.9387 8.42008C73.1065 8.42008 73.2625 8.37812 73.4062 8.29384C73.55 8.20994 73.6641 8.08816 73.7478 7.92888C73.8315 7.76961 73.8738 7.57877 73.8738 7.35638C73.8738 7.13399 73.8319 6.94613 73.7478 6.79316C73.6637 6.63983 73.5515 6.52139 73.4107 6.43711C73.2699 6.3532 73.1124 6.31088 72.9383 6.31088C72.7642 6.31088 72.6071 6.35283 72.466 6.43711C72.3252 6.52139 72.2126 6.63983 72.1288 6.79316C72.0447 6.9465 72.0029 7.13436 72.0029 7.35638C72.0029 7.5784 72.0462 7.76961 72.1333 7.92888C72.22 8.08816 72.3341 8.20994 72.4749 8.29384C72.6156 8.37812 72.7701 8.42008 72.9379 8.42008H72.9387Z" fill="#972448"/>
<path d="M28.9062 21.48V14.8375H29.9495V20.5878H32.7555V21.48H28.9062Z" fill="#972448"/>
<path d="M35.004 21.6062C34.722 21.6062 34.472 21.546 34.253 21.4257C34.034 21.3054 33.8618 21.1373 33.7358 20.9212C33.6099 20.7047 33.5469 20.4526 33.5469 20.1642C33.5469 19.6295 33.7821 19.2163 34.253 18.9248C34.7235 18.6334 35.4745 18.4307 36.5059 18.3163C36.4999 18.124 36.4699 17.9469 36.4158 17.7847C36.3617 17.6224 36.2673 17.4917 36.1324 17.3926C35.9976 17.2935 35.8071 17.2437 35.5611 17.2437C35.3033 17.2437 35.0543 17.295 34.8146 17.3971C34.5746 17.4992 34.3471 17.6165 34.1311 17.7487L33.7443 17.0455C33.9181 16.9374 34.11 16.8335 34.3201 16.7343C34.5297 16.6352 34.7546 16.5539 34.9947 16.4912C35.2344 16.428 35.4833 16.3965 35.7412 16.3965C36.155 16.3965 36.4936 16.4793 36.7574 16.6445C37.0212 16.8097 37.2175 17.0488 37.3465 17.361C37.4754 17.6737 37.5399 18.052 37.5399 18.4968V21.4799H36.6944L36.6137 20.9123H36.5777C36.3558 21.1046 36.1132 21.2683 35.8494 21.4035C35.5856 21.5386 35.3037 21.6062 35.004 21.6062ZM35.3189 20.7768C35.5348 20.7768 35.7356 20.727 35.9216 20.6279C36.1072 20.5287 36.3025 20.3832 36.5062 20.1909V18.9831C36.0205 19.0373 35.6338 19.1168 35.3459 19.2219C35.058 19.3269 34.8528 19.4502 34.7298 19.5913C34.6068 19.7324 34.5453 19.8965 34.5453 20.0825C34.5453 20.329 34.6201 20.5061 34.7702 20.6141C34.9199 20.7222 35.1029 20.7764 35.3189 20.7764V20.7768Z" fill="#972448"/>
<path d="M41.3087 21.6062C41.0868 21.6062 40.856 21.549 40.6163 21.435C40.3762 21.321 40.1547 21.1647 39.9509 20.9665H39.915L39.825 21.4803H39.0066V14.2969H40.041V16.1986L40.005 17.0458C40.221 16.8535 40.4563 16.6976 40.7111 16.5773C40.966 16.457 41.222 16.3969 41.4803 16.3969C41.9 16.3969 42.2553 16.5004 42.5461 16.708C42.8369 16.9151 43.0588 17.2081 43.2115 17.5868C43.3641 17.9655 43.4408 18.4099 43.4408 18.9208C43.4408 19.4855 43.3404 19.9692 43.1396 20.3717C42.9388 20.7742 42.6765 21.0808 42.3527 21.291C42.0289 21.5011 41.6811 21.6065 41.3095 21.6065L41.3087 21.6062ZM41.1109 20.7318C41.3506 20.7318 41.5651 20.6628 41.754 20.5247C41.943 20.3865 42.0927 20.1838 42.2038 19.9161C42.3146 19.6488 42.3701 19.3229 42.3701 18.9382C42.3701 18.59 42.3298 18.2907 42.2486 18.0416C42.1675 17.7925 42.043 17.6001 41.8752 17.4646C41.7074 17.3295 41.4854 17.2619 41.2098 17.2619C41.0179 17.2619 40.826 17.3113 40.6341 17.4108C40.4422 17.5099 40.2444 17.6618 40.0406 17.866V20.2904C40.2262 20.4526 40.4137 20.567 40.6026 20.6327C40.7915 20.6988 40.9609 20.7318 41.1109 20.7318Z" fill="#972448"/>
<path d="M46.0842 21.6062C45.7122 21.6062 45.4169 21.5327 45.1984 21.3853C44.9794 21.2383 44.822 21.0337 44.7264 20.7723C44.6304 20.5109 44.5826 20.2061 44.5826 19.8575V17.3518H43.8632V16.5766L44.6367 16.5135L44.7538 15.1435H45.617V16.5135H46.9029V17.3518H45.617V19.8664C45.617 20.1608 45.674 20.3847 45.7878 20.5377C45.9015 20.691 46.0875 20.7675 46.3453 20.7675C46.4291 20.7675 46.5191 20.7556 46.6151 20.7315C46.711 20.7073 46.7947 20.6806 46.867 20.6505L47.0559 21.4165C46.924 21.4584 46.7755 21.5004 46.6106 21.5427C46.4457 21.5847 46.2701 21.6058 46.0845 21.6058L46.0842 21.6062Z" fill="#972448"/>
<path d="M47.9816 21.4799V16.5138H48.827L48.917 17.406H48.9352C49.1152 17.0874 49.3279 16.8398 49.5739 16.6623C49.8195 16.4852 50.0773 16.3965 50.3474 16.3965C50.4675 16.3965 50.5693 16.4054 50.6531 16.4236C50.7368 16.4414 50.8179 16.4655 50.8957 16.4956L50.716 17.406C50.626 17.3759 50.5453 17.3551 50.4734 17.3429C50.4015 17.331 50.3144 17.3247 50.2126 17.3247C50.0147 17.3247 49.8047 17.4045 49.5831 17.5634C49.3612 17.7227 49.1723 18.0004 49.0167 18.3973V21.4796H47.9823L47.9816 21.4799Z" fill="#972448"/>
<path d="M53.5936 21.6062C53.1439 21.6062 52.736 21.5026 52.3707 21.2951C52.005 21.0879 51.7142 20.7905 51.4982 20.4029C51.2823 20.0153 51.1744 19.5482 51.1744 19.0013C51.1744 18.5989 51.2374 18.2369 51.3634 17.9154C51.4893 17.5938 51.6601 17.3206 51.8761 17.0952C52.0921 16.8699 52.3348 16.6972 52.6045 16.5769C52.8742 16.4566 53.1498 16.3965 53.4317 16.3965C53.8693 16.3965 54.2379 16.4941 54.538 16.6894C54.8377 16.8847 55.0655 17.158 55.2215 17.5096C55.3775 17.8612 55.4553 18.271 55.4553 18.74C55.4553 18.8421 55.4508 18.9397 55.4419 19.0329C55.4331 19.1261 55.4193 19.2055 55.4016 19.2716H52.1907C52.2207 19.5842 52.3029 19.853 52.4381 20.0784C52.573 20.3038 52.7497 20.4783 52.9687 20.6011C53.1876 20.7244 53.4377 20.786 53.7196 20.786C53.9415 20.786 54.1482 20.753 54.3402 20.6869C54.5321 20.6208 54.718 20.5306 54.8977 20.4166L55.2574 21.0745C55.0296 21.2249 54.7762 21.3511 54.4976 21.4532C54.219 21.5553 53.9174 21.6065 53.5936 21.6065V21.6062ZM52.1818 18.5506H54.5561C54.5561 18.13 54.4617 17.8025 54.2727 17.5682C54.0838 17.3339 53.8096 17.2166 53.4499 17.2166C53.2461 17.2166 53.0542 17.2679 52.8742 17.37C52.6941 17.4721 52.543 17.6224 52.42 17.8207C52.297 18.0189 52.2177 18.2621 52.1818 18.5506Z" fill="#972448"/>
<path d="M58.684 21.6062C58.2342 21.6062 57.8263 21.5026 57.461 21.2951C57.0954 21.0879 56.8046 20.7905 56.5886 20.4029C56.3726 20.0153 56.2648 19.5482 56.2648 19.0013C56.2648 18.5989 56.3278 18.2369 56.4537 17.9154C56.5797 17.5938 56.7505 17.3206 56.9665 17.0952C57.1824 16.8699 57.4251 16.6972 57.6948 16.5769C57.9645 16.4566 58.2401 16.3965 58.5221 16.3965C58.9596 16.3965 59.3282 16.4941 59.6283 16.6894C59.928 16.8847 60.1559 17.158 60.3118 17.5096C60.4678 17.8612 60.5456 18.271 60.5456 18.74C60.5456 18.8421 60.5412 18.9397 60.5323 19.0329C60.5234 19.1261 60.5097 19.2055 60.4919 19.2716H57.281C57.311 19.5842 57.3932 19.853 57.5285 20.0784C57.6633 20.3038 57.84 20.4783 58.059 20.6011C58.2779 20.7244 58.528 20.786 58.8099 20.786C59.0319 20.786 59.2386 20.753 59.4305 20.6869C59.6224 20.6208 59.8084 20.5306 59.988 20.4166L60.3478 21.0745C60.1199 21.2249 59.8665 21.3511 59.5879 21.4532C59.3093 21.5553 59.0078 21.6065 58.684 21.6065V21.6062ZM57.2721 18.5506H59.6465C59.6465 18.13 59.552 17.8025 59.3631 17.5682C59.1741 17.3339 58.9 17.2166 58.5402 17.2166C58.3365 17.2166 58.1446 17.2679 57.9645 17.37C57.7845 17.4721 57.6333 17.6224 57.5103 17.8207C57.3873 18.0189 57.308 18.2621 57.2721 18.5506Z" fill="#972448"/>
<path d="M11.7541 9.21424C12.6247 8.34027 13.6413 8.18396 14.7442 8.59422C15.6207 8.9202 16.0734 9.62079 16.2209 10.5252C16.2594 10.7613 16.2642 11.0053 16.2646 11.2455C16.2679 13.0395 16.2664 14.8335 16.2664 16.6278C16.2664 16.7076 16.2664 16.7875 16.2664 16.8814H14.5193C14.5152 16.8079 14.5074 16.7303 14.5074 16.6527C14.5063 14.8279 14.5085 13.0027 14.503 11.1779C14.5022 10.9763 14.4837 10.7684 14.4311 10.575C14.3177 10.1602 14.0051 9.93971 13.5831 9.94194C13.1304 9.94417 12.8195 10.1643 12.7036 10.5876C12.6602 10.7461 12.6384 10.9158 12.638 11.0806C12.6336 12.9366 12.635 14.7926 12.635 16.6482C12.635 16.7217 12.635 16.7953 12.635 16.8821H10.8671C10.8671 16.8108 10.8671 16.7392 10.8671 16.6675C10.8671 14.793 10.8675 12.9184 10.8668 11.0442C10.8668 10.9455 10.8686 10.8449 10.8494 10.7487C10.7345 10.1718 10.374 9.89404 9.81758 9.94677C9.35486 9.9902 9.0181 10.3871 9.00883 10.9191C9.00068 11.4077 9.00698 11.8967 9.00698 12.3853C9.00698 13.8206 9.00698 15.2556 9.00698 16.6909V16.8844H7.25056C7.24685 16.8238 7.24018 16.77 7.24018 16.7162C7.24018 14.7986 7.21833 12.8802 7.24797 10.9629C7.26723 9.71101 7.93668 8.72899 9.17444 8.46502C10.1147 8.26453 10.9779 8.42492 11.6774 9.14853C11.6985 9.17043 11.7233 9.18863 11.7533 9.21462L11.7541 9.21424Z" fill="#972448"/>
<path d="M0 15.8493C0.320091 15.5103 0.630549 15.1769 0.950269 14.8524C0.975831 14.8264 1.07549 14.8461 1.12291 14.8743C1.58637 15.1524 2.07059 15.3837 2.6074 15.4702C3.14422 15.5567 3.66511 15.5088 4.13561 15.1958C4.67354 14.8379 4.69911 14.1938 4.14525 13.8637C3.76884 13.6394 3.34317 13.4891 2.92638 13.3443C2.29843 13.126 1.65936 12.9455 1.07549 12.6099C-0.299714 11.8191 -0.273781 9.91484 0.935079 9.06314C1.71641 8.51291 2.58777 8.34324 3.51544 8.41304C4.44755 8.48284 5.25927 8.86451 6.0117 9.45C5.79349 9.85803 5.57676 10.2631 5.35522 10.6778C5.07773 10.5345 4.81655 10.3867 4.54462 10.2627C4.09227 10.0567 3.6188 9.8959 3.11755 9.93117C2.81672 9.95234 2.50071 10.0147 2.22878 10.1398C1.75235 10.3589 1.71382 10.9399 2.1269 11.2648C2.46885 11.5336 2.88081 11.6513 3.28574 11.782C3.9363 11.9917 4.58908 12.1867 5.19851 12.513C6.79859 13.3695 6.64781 15.4843 5.33706 16.3568C4.70022 16.7808 3.99669 16.9627 3.24129 16.9824C2.48033 17.0024 1.73901 16.9137 1.03918 16.5948C0.649443 16.4173 0.299344 16.1812 0 15.8496L0 15.8493Z" fill="#972448"/>
<path d="M23.7461 15.3867C23.5927 15.8868 23.4556 16.3468 23.3059 16.8027C23.2915 16.8469 23.1978 16.8899 23.1403 16.8907C22.4802 16.897 21.8196 16.8951 21.1594 16.8951C20.2028 16.8951 19.2463 16.8951 18.2897 16.8944C17.8729 16.894 17.7077 16.7258 17.7062 16.3093C17.6984 14.0025 17.6903 11.6958 17.6825 9.38949C17.6814 9.10621 17.6825 8.82256 17.6825 8.52591H19.4408C19.4408 8.81253 19.4408 9.0999 19.4408 9.38726C19.4423 11.2488 19.4408 13.1104 19.4474 14.9723C19.4493 15.4891 19.4163 15.3833 19.8613 15.3855C21.0586 15.3918 22.256 15.3874 23.4534 15.3874C23.533 15.3874 23.6123 15.3874 23.7464 15.3874L23.7461 15.3867Z" fill="#972448"/>
<path d="M11.7615 1.60204C15.5485 1.60204 18.8828 3.54231 20.83 6.48464H22.6975C20.5762 2.6197 16.4743 0 11.7615 0C7.04868 0 2.94715 2.6197 0.825806 6.48464H2.69337C4.64022 3.54231 7.97449 1.60204 11.7615 1.60204Z" fill="url(#paint0_linear_116_393)"/>
<path d="M11.7615 23.3979C8.02012 23.3979 4.72029 21.5041 2.76344 18.6212H0.884766C3.02278 22.4282 7.09208 25 11.7615 25C16.431 25 20.5007 22.4282 22.6383 18.6212H20.7593C18.8028 21.5041 15.5026 23.3979 11.7612 23.3979H11.7615Z" fill="url(#paint1_linear_116_393)"/>
<defs>
<linearGradient id="paint0_linear_116_393" x1="0.825806" y1="3.24232" x2="22.6975" y2="3.24232" gradientUnits="userSpaceOnUse">
<stop stop-color="#972448"/>
<stop offset="0.15" stop-color="#98274A"/>
<stop offset="0.29" stop-color="#9E3252"/>
<stop offset="0.41" stop-color="#A74460"/>
<stop offset="0.54" stop-color="#B45E74"/>
<stop offset="0.65" stop-color="#C47C8B"/>
<stop offset="0.69" stop-color="#C17687" stop-opacity="0.94"/>
<stop offset="0.75" stop-color="#BA697C" stop-opacity="0.79"/>
<stop offset="0.84" stop-color="#AF536C" stop-opacity="0.54"/>
<stop offset="0.94" stop-color="#9F3555" stop-opacity="0.2"/>
<stop offset="1" stop-color="#972448" stop-opacity="0"/>
</linearGradient>
<linearGradient id="paint1_linear_116_393" x1="0.884766" y1="21.8108" x2="22.6387" y2="21.8108" gradientUnits="userSpaceOnUse">
<stop stop-color="#972448" stop-opacity="0"/>
<stop offset="0.06" stop-color="#9F3555" stop-opacity="0.2"/>
<stop offset="0.16" stop-color="#AF536C" stop-opacity="0.54"/>
<stop offset="0.25" stop-color="#BA697C" stop-opacity="0.79"/>
<stop offset="0.31" stop-color="#C17687" stop-opacity="0.94"/>
<stop offset="0.35" stop-color="#C47C8B"/>
<stop offset="0.46" stop-color="#B45E74"/>
<stop offset="0.59" stop-color="#A74460"/>
<stop offset="0.71" stop-color="#9E3252"/>
<stop offset="0.85" stop-color="#98274A"/>
<stop offset="1" stop-color="#972448"/>
</linearGradient>
</defs>
</svg>
