<svg width="97" height="32" viewBox="0 0 97 32" fill="none" xmlns="http://www.w3.org/2000/svg">
<path d="M39.4176 13.8121C38.8343 13.8121 38.2837 13.7004 37.7654 13.4775C37.2476 13.2546 36.7928 12.9467 36.4011 12.5546L37.184 11.6317C37.4909 11.9316 37.8422 12.1739 38.2373 12.3583C38.6323 12.5427 39.0372 12.6354 39.4517 12.6354C39.9582 12.6354 40.3475 12.5242 40.6202 12.3008C40.8924 12.0779 41.0289 11.7895 41.0289 11.4354C41.0289 11.1741 40.9715 10.9645 40.8563 10.8067C40.7411 10.6489 40.5817 10.5163 40.3783 10.4085C40.1749 10.3011 39.9425 10.1894 39.6817 10.0739L38.5076 9.56636C38.2311 9.45088 37.9608 9.29928 37.6962 9.11061C37.4316 8.92242 37.2125 8.68386 37.0399 8.3954C36.8673 8.10693 36.781 7.75526 36.781 7.33991C36.781 6.89415 36.9 6.49401 37.138 6.13996C37.3756 5.78639 37.7057 5.50743 38.1282 5.30356C38.5502 5.09968 39.0297 4.99799 39.5669 4.99799C40.0658 4.99799 40.5376 5.09446 40.9829 5.28645C41.4277 5.47892 41.808 5.74029 42.1224 6.07105L41.4434 6.92456C41.1745 6.68647 40.889 6.49971 40.586 6.36522C40.2825 6.23073 39.943 6.16325 39.5674 6.16325C39.1302 6.16325 38.7845 6.26114 38.5313 6.45741C38.278 6.65368 38.1514 6.91696 38.1514 7.24772C38.1514 7.49389 38.2164 7.69586 38.3473 7.85364C38.4777 8.01141 38.6484 8.1421 38.8594 8.2457C39.0704 8.3493 39.2872 8.44767 39.51 8.53987L40.6728 9.036C41.0104 9.1743 41.3097 9.34348 41.5709 9.54355C41.8318 9.74362 42.0352 9.98599 42.1813 10.2702C42.3268 10.5548 42.3999 10.9089 42.3999 11.3314C42.3999 11.7852 42.2808 12.1987 42.0428 12.5717C41.8047 12.9448 41.4633 13.2446 41.018 13.4713C40.5727 13.698 40.0397 13.8116 39.418 13.8116L39.4176 13.8121Z" fill="white"/>
<path d="M45.3807 13.812C45.0198 13.812 44.6997 13.735 44.4195 13.5811C44.1392 13.4271 43.9187 13.2118 43.7575 12.9352C43.5962 12.6582 43.5156 12.3355 43.5156 11.9662C43.5156 11.2819 43.8167 10.753 44.4195 10.3799C45.0217 10.0069 45.9829 9.74739 47.3031 9.60102C47.2955 9.35486 47.2571 9.12817 47.1879 8.9205C47.1187 8.71282 46.9977 8.54554 46.8251 8.41865C46.6525 8.29177 46.4088 8.22809 46.0939 8.22809C45.7638 8.22809 45.4452 8.29367 45.1384 8.42436C44.8311 8.55504 44.5399 8.70522 44.2634 8.8744L43.7684 7.97432C43.9908 7.83602 44.2364 7.70296 44.5053 7.57607C44.7737 7.44919 45.0615 7.34511 45.3688 7.2648C45.6756 7.18401 45.9943 7.14362 46.3244 7.14362C46.8541 7.14362 47.2875 7.24959 47.6251 7.46107C47.9627 7.67255 48.2141 7.97859 48.3791 8.37826C48.5441 8.7784 48.6266 9.26266 48.6266 9.83198V13.6504H47.5445L47.4411 12.9238H47.3951C47.1111 13.17 46.8005 13.3796 46.4628 13.5525C46.1252 13.7255 45.7643 13.812 45.3807 13.812ZM45.7833 12.7504C46.0598 12.7504 46.3168 12.6867 46.5548 12.5598C46.7924 12.4329 47.0423 12.2466 47.3031 12.0005V10.4545C46.6814 10.5239 46.1864 10.6256 45.8179 10.7601C45.4494 10.8946 45.1867 11.0524 45.0293 11.233C44.8719 11.4135 44.7931 11.6236 44.7931 11.8617C44.7931 12.1772 44.8889 12.4039 45.081 12.5422C45.2726 12.6805 45.5068 12.7499 45.7833 12.7499V12.7504Z" fill="white"/>
<path d="M50.5032 13.6505V7.29384H51.5853L51.7005 8.19344H51.7238C52.0002 7.90118 52.2976 7.65311 52.6158 7.44924C52.934 7.24536 53.2929 7.14366 53.6922 7.14366C54.1603 7.14366 54.5325 7.24584 54.809 7.44924C55.0854 7.65311 55.2927 7.93967 55.4307 8.30845C55.7451 7.97009 56.0694 7.69113 56.4033 7.47205C56.7371 7.25297 57.0999 7.14319 57.4911 7.14319C58.1512 7.14319 58.6401 7.36037 58.9588 7.79473C59.277 8.22956 59.4368 8.85021 59.4368 9.6581V13.65H58.1014V9.81968C58.1014 9.27364 58.017 8.88348 57.8482 8.64871C57.6794 8.41395 57.4143 8.29704 57.0539 8.29704C56.8391 8.29704 56.6143 8.36643 56.3805 8.50472C56.1462 8.64301 55.8949 8.85876 55.6265 9.15103V13.6505H54.3025V9.82015C54.3025 9.27411 54.2181 8.88395 54.0493 8.64919C53.8805 8.41442 53.6121 8.29752 53.2436 8.29752C53.0364 8.29752 52.8135 8.3669 52.5759 8.50519C52.3379 8.64349 52.0885 8.85924 51.8276 9.1515V13.651H50.5036L50.5032 13.6505Z" fill="white"/>
<path d="M61.3586 13.6505V4.45575H62.6594V10.3742H62.7054L65.1575 7.29382H66.6309L64.4898 9.88951L66.8727 13.6505H65.434L63.7188 10.7777L62.6599 12.0005V13.65H61.3591L61.3586 13.6505Z" fill="white"/>
<path d="M68.9912 13.6505L67.2874 7.29382H68.6227L69.463 10.7316C69.5242 11.0391 69.582 11.3413 69.6356 11.6374C69.6892 11.9335 69.7466 12.2353 69.8082 12.5432H69.8656C69.9268 12.2357 69.9903 11.9335 70.0553 11.6374C70.1203 11.3413 70.1914 11.0396 70.2682 10.7316L71.1664 7.29382H72.3865L73.2961 10.7316C73.3729 11.0391 73.4459 11.3413 73.5147 11.6374C73.5839 11.9335 73.6527 12.2353 73.7219 12.5432H73.7793C73.8404 12.2357 73.9002 11.9335 73.9576 11.6374C74.015 11.3413 74.0742 11.0396 74.1359 10.7316L74.9534 7.29382H76.2082L74.5622 13.6505H72.9736L72.1679 10.5125C72.0911 10.2127 72.0219 9.91281 71.9607 9.61294C71.899 9.31307 71.8341 9.00132 71.7648 8.67864H71.7075C71.6382 9.0018 71.5752 9.31497 71.5178 9.61864C71.4604 9.92279 71.3931 10.2246 71.3162 10.5244L70.5333 13.651H68.9907L68.9912 13.6505Z" fill="white"/>
<path d="M78.845 13.812C78.4842 13.812 78.1641 13.735 77.8838 13.5811C77.6036 13.4271 77.3831 13.2118 77.2218 12.9352C77.0606 12.6582 76.98 12.3355 76.98 11.9662C76.98 11.2819 77.2811 10.753 77.8838 10.3799C78.4861 10.0069 79.4473 9.74739 80.7675 9.60102C80.7599 9.35486 80.7215 9.12817 80.6523 8.9205C80.583 8.71282 80.4621 8.54554 80.2895 8.41865C80.1169 8.29177 79.8731 8.22809 79.5582 8.22809C79.2282 8.22809 78.9095 8.29367 78.6027 8.42436C78.2954 8.55504 78.0043 8.70522 77.7278 8.8744L77.2327 7.97432C77.4551 7.83602 77.7008 7.70296 77.9697 7.57607C78.2381 7.44919 78.5259 7.34511 78.8332 7.2648C79.14 7.18401 79.4587 7.14362 79.7887 7.14362C80.3184 7.14362 80.7518 7.24959 81.0895 7.46107C81.4271 7.67255 81.6784 7.97859 81.8435 8.37826C82.0085 8.7784 82.091 9.26266 82.091 9.83198V13.6504H81.0089L80.9055 12.9238H80.8595C80.5754 13.17 80.2648 13.3796 79.9272 13.5525C79.5895 13.7255 79.2287 13.812 78.845 13.812ZM79.2481 12.7504C79.5246 12.7504 79.7816 12.6867 80.0197 12.5598C80.2572 12.4329 80.5071 12.2466 80.768 12.0005V10.4545C80.1463 10.5239 79.6512 10.6256 79.2827 10.7601C78.9143 10.8946 78.6516 11.0524 78.4941 11.233C78.3367 11.4135 78.258 11.6236 78.258 11.8617C78.258 12.1772 78.3538 12.4039 78.5458 12.5422C78.7374 12.6805 78.9717 12.7499 79.2481 12.7499V12.7504Z" fill="white"/>
<path d="M83.968 13.6504V7.29379H85.0502L85.1654 8.18199H85.1886C85.4803 7.89733 85.7947 7.65354 86.1328 7.44919C86.4704 7.24531 86.8541 7.14362 87.2842 7.14362C87.9594 7.14362 88.4526 7.3608 88.7632 7.79515C89.0738 8.22999 89.2294 8.85064 89.2294 9.65853V13.6504H87.9054V9.8201C87.9054 9.27407 87.821 8.8839 87.6521 8.64914C87.4833 8.41438 87.2107 8.29747 86.8346 8.29747C86.543 8.29747 86.2836 8.36876 86.0574 8.51085C85.8307 8.65342 85.5756 8.8668 85.292 9.15098V13.6504H83.968Z" fill="white"/>
<path d="M93.327 16.4999C92.8206 16.4999 92.3677 16.4363 91.9684 16.3094C91.5692 16.1825 91.2567 15.9957 91.0305 15.75C90.8038 15.5039 90.6909 15.1964 90.6909 14.8271C90.6909 14.5577 90.7715 14.3039 90.9328 14.0658C91.094 13.8272 91.3202 13.62 91.6118 13.4428V13.3967C91.4506 13.2893 91.3145 13.1486 91.2031 12.9756C91.0916 12.8027 91.0361 12.5893 91.0361 12.3355C91.0361 12.0817 91.1111 11.8531 91.2604 11.6493C91.4103 11.4454 91.5729 11.2819 91.7498 11.1588V11.1127C91.527 10.9436 91.3316 10.7131 91.1628 10.4203C90.9939 10.1281 90.9095 9.7935 90.9095 9.41665C90.9095 8.93999 91.0229 8.53035 91.2491 8.18818C91.4753 7.84602 91.7745 7.58654 92.1467 7.40928C92.519 7.2325 92.924 7.1441 93.3612 7.1441C93.5452 7.1441 93.7159 7.15741 93.8733 7.1845C94.0308 7.21159 94.1669 7.2477 94.2821 7.29428H96.527V8.29796H95.3296C95.4449 8.42865 95.5406 8.59403 95.6175 8.7941C95.6943 8.99417 95.7327 9.21325 95.7327 9.45181C95.7327 9.91326 95.627 10.3077 95.4159 10.6342C95.2049 10.9611 94.919 11.2111 94.5581 11.3841C94.1972 11.5571 93.7984 11.6436 93.3607 11.6436C93.2227 11.6436 93.0748 11.6265 92.9173 11.5918C92.7599 11.5571 92.6124 11.5129 92.4739 11.4592C92.3739 11.5438 92.2914 11.636 92.2264 11.7362C92.161 11.8365 92.1287 11.9634 92.1287 12.1169C92.1287 12.3013 92.2036 12.4515 92.353 12.5669C92.5024 12.6824 92.7808 12.7399 93.1876 12.7399H94.3618C95.1063 12.7399 95.6701 12.8611 96.0542 13.1035C96.4379 13.3458 96.6299 13.736 96.6299 14.2744C96.6299 14.6822 96.4957 15.0548 96.2268 15.3936C95.958 15.732 95.5762 16.0009 95.0816 16.201C94.5865 16.4011 94.0014 16.5009 93.3261 16.5009L93.327 16.4999ZM93.511 15.6231C93.8871 15.6231 94.2091 15.5694 94.4779 15.4616C94.7463 15.3537 94.9574 15.2135 95.111 15.0405C95.2647 14.8675 95.3415 14.6846 95.3415 14.4926C95.3415 14.2231 95.2414 14.0406 95.0423 13.9446C94.8426 13.8482 94.551 13.8006 94.1673 13.8006H93.2118C93.0582 13.8006 92.9126 13.793 92.7741 13.7773C92.6361 13.7617 92.4977 13.7389 92.3597 13.708C92.1757 13.8463 92.041 13.9964 91.9566 14.158C91.8722 14.3196 91.83 14.4769 91.83 14.6309C91.83 14.9383 91.9798 15.1807 92.279 15.3575C92.5783 15.5343 92.9889 15.6227 93.511 15.6227V15.6231ZM93.3617 10.7777C93.5765 10.7777 93.7761 10.724 93.9601 10.6161C94.1441 10.5087 94.2902 10.3528 94.3973 10.149C94.5045 9.9451 94.5586 9.70083 94.5586 9.41617C94.5586 9.13151 94.505 8.89104 94.3973 8.69525C94.2897 8.49898 94.146 8.34738 93.9658 8.23951C93.7856 8.1321 93.5841 8.07793 93.3612 8.07793C93.1383 8.07793 92.9372 8.13163 92.7566 8.23951C92.5764 8.34738 92.4322 8.49898 92.325 8.69525C92.2174 8.89152 92.1638 9.13199 92.1638 9.41617C92.1638 9.70036 92.2193 9.9451 92.3307 10.149C92.4417 10.3528 92.5878 10.5087 92.768 10.6161C92.9482 10.724 93.1459 10.7777 93.3607 10.7777H93.3617Z" fill="white"/>
<path d="M37 27.4944V18.9921H38.3354V26.3524H41.927V27.4944H37Z" fill="white"/>
<path d="M44.805 27.656C44.4441 27.656 44.124 27.579 43.8438 27.425C43.5635 27.271 43.343 27.0557 43.1818 26.7792C43.0206 26.5021 42.9399 26.1794 42.9399 25.8102C42.9399 25.1258 43.2411 24.5969 43.8438 24.2239C44.446 23.8508 45.4072 23.5913 46.7274 23.445C46.7199 23.1988 46.6814 22.9721 46.6122 22.7644C46.543 22.5568 46.4221 22.3895 46.2494 22.2626C46.0768 22.1357 45.8331 22.072 45.5182 22.072C45.1882 22.072 44.8695 22.1376 44.5627 22.2683C44.2554 22.399 43.9642 22.5491 43.6878 22.7183L43.1927 21.8182C43.4151 21.68 43.6607 21.5469 43.9296 21.42C44.198 21.2931 44.4859 21.189 44.7931 21.1087C45.1 21.0279 45.4186 20.9875 45.7487 20.9875C46.2784 20.9875 46.7118 21.0935 47.0494 21.305C47.3871 21.5165 47.6384 21.8225 47.8034 22.2222C47.9684 22.6223 48.051 23.1066 48.051 23.6759V27.4944H46.9688L46.8654 26.7678H46.8194C46.5354 27.0139 46.2248 27.2235 45.8871 27.3965C45.5495 27.5695 45.1886 27.656 44.805 27.656ZM45.2081 26.5943C45.4845 26.5943 45.7416 26.5306 45.9796 26.4037C46.2172 26.2768 46.4671 26.0906 46.7279 25.8444V24.2985C46.1062 24.3678 45.6112 24.4695 45.2427 24.604C44.8742 24.7385 44.6115 24.8963 44.4541 25.0769C44.2967 25.2575 44.2179 25.4675 44.2179 25.7056C44.2179 26.0212 44.3137 26.2479 44.5058 26.3861C44.6974 26.5244 44.9316 26.5938 45.2081 26.5938V26.5943Z" fill="white"/>
<path d="M52.8752 27.6559C52.5911 27.6559 52.2957 27.5828 51.9889 27.4369C51.6816 27.291 51.398 27.0909 51.1372 26.8371H51.0912L50.976 27.4948H49.9285V18.3001H51.2525V20.7342L51.2065 21.8187C51.4829 21.5725 51.784 21.3729 52.1103 21.219C52.4366 21.065 52.7642 20.988 53.0948 20.988C53.632 20.988 54.0868 21.1206 54.4591 21.3862C54.8313 21.6514 55.1154 22.0264 55.3107 22.5111C55.5061 22.9958 55.6043 23.5647 55.6043 24.2186C55.6043 24.9414 55.4758 25.5607 55.2187 26.0758C54.9617 26.591 54.626 26.9835 54.2115 27.2525C53.7971 27.5214 53.3518 27.6564 52.8761 27.6564L52.8752 27.6559ZM52.622 26.5368C52.9288 26.5368 53.2034 26.4484 53.4452 26.2716C53.687 26.0948 53.8786 25.8353 54.0209 25.4927C54.1627 25.1505 54.2338 24.7333 54.2338 24.2409C54.2338 23.7952 54.1821 23.4121 54.0783 23.0933C53.9744 22.7744 53.8151 22.5282 53.6003 22.3548C53.3854 22.1818 53.1014 22.0953 52.7486 22.0953C52.5029 22.0953 52.2573 22.1585 52.0117 22.2859C51.766 22.4127 51.5128 22.6071 51.252 22.8685V25.9717C51.4896 26.1794 51.7295 26.3258 51.9714 26.4099C52.2132 26.4945 52.4299 26.5368 52.622 26.5368Z" fill="white"/>
<path d="M58.9877 27.6559C58.5116 27.6559 58.1336 27.5618 57.8538 27.3732C57.5736 27.185 57.372 26.9231 57.2497 26.5886C57.1269 26.254 57.0657 25.8638 57.0657 25.4176V22.2103H56.1448V21.218L57.1349 21.1372L57.2848 19.3836H58.3897V21.1372H60.0357V22.2103H58.3897V25.429C58.3897 25.8058 58.4627 26.0924 58.6083 26.2882C58.7539 26.4845 58.9919 26.5824 59.322 26.5824C59.4291 26.5824 59.5444 26.5672 59.6672 26.5363C59.79 26.5054 59.8972 26.4712 59.9897 26.4327L60.2315 27.4131C60.0627 27.4668 59.8725 27.5205 59.6615 27.5747C59.4505 27.6284 59.2257 27.6554 58.9881 27.6554L58.9877 27.6559Z" fill="white"/>
<path d="M61.4165 27.4944V21.1377H62.4986L62.6139 22.2797H62.6371C62.8676 21.8719 63.1398 21.555 63.4546 21.3278C63.769 21.1011 64.0991 20.9875 64.4448 20.9875C64.5984 20.9875 64.7288 20.999 64.836 21.0222C64.9432 21.0451 65.047 21.0759 65.1466 21.1144L64.9166 22.2797C64.8014 22.2412 64.698 22.2146 64.606 22.1989C64.514 22.1837 64.4026 22.1756 64.2722 22.1756C64.019 22.1756 63.7501 22.2778 63.4665 22.4812C63.1825 22.6851 62.9406 23.0405 62.7414 23.5486V27.4939H61.4175L61.4165 27.4944Z" fill="white"/>
<path d="M68.5998 27.656C68.0241 27.656 67.502 27.5234 67.0344 27.2577C66.5664 26.9925 66.1941 26.6119 65.9176 26.1157C65.6412 25.6196 65.5032 25.0218 65.5032 24.3218C65.5032 23.8066 65.5838 23.3433 65.745 22.9317C65.9063 22.5202 66.1249 22.1704 66.4013 21.8819C66.6778 21.5935 66.9884 21.3725 67.3336 21.2185C67.6788 21.0645 68.0317 20.9875 68.3925 20.9875C68.9526 20.9875 69.4244 21.1125 69.8085 21.3625C70.1921 21.6125 70.4838 21.9622 70.6834 22.4123C70.8831 22.8623 70.9827 23.387 70.9827 23.9872C70.9827 24.1179 70.977 24.2429 70.9656 24.3621C70.9542 24.4814 70.9367 24.5831 70.9139 24.6677H66.8039C66.8423 25.0679 66.9476 25.4119 67.1207 25.7004C67.2933 25.9889 67.5195 26.2122 67.7998 26.3695C68.08 26.5273 68.4001 26.6062 68.761 26.6062C69.045 26.6062 69.3096 26.5639 69.5553 26.4793C69.8009 26.3947 70.039 26.2792 70.269 26.1333L70.7294 26.9754C70.4378 27.1679 70.1134 27.3295 69.7568 27.4602C69.4002 27.5908 69.0142 27.6564 68.5998 27.6564V27.656ZM66.7925 23.7448H69.8317C69.8317 23.2064 69.7108 22.7872 69.469 22.4874C69.2271 22.1875 68.8762 22.0373 68.4158 22.0373C68.1549 22.0373 67.9093 22.1029 67.6788 22.2336C67.4484 22.3643 67.2549 22.5568 67.0975 22.8105C66.94 23.0643 66.8385 23.3756 66.7925 23.7448Z" fill="white"/>
<path d="M75.1154 27.656C74.5397 27.656 74.0176 27.5234 73.55 27.2577C73.082 26.9925 72.7097 26.6119 72.4333 26.1157C72.1568 25.6196 72.0188 25.0218 72.0188 24.3218C72.0188 23.8066 72.0994 23.3433 72.2606 22.9317C72.4219 22.5202 72.6405 22.1704 72.917 21.8819C73.1934 21.5935 73.504 21.3725 73.8492 21.2185C74.1945 21.0645 74.5473 20.9875 74.9082 20.9875C75.4682 20.9875 75.94 21.1125 76.3241 21.3625C76.7078 21.6125 76.9994 21.9622 77.1991 22.4123C77.3987 22.8623 77.4983 23.387 77.4983 23.9872C77.4983 24.1179 77.4926 24.2429 77.4812 24.3621C77.4698 24.4814 77.4523 24.5831 77.4295 24.6677H73.3196C73.358 25.0679 73.4632 25.4119 73.6363 25.7004C73.8089 25.9889 74.0351 26.2122 74.3154 26.3695C74.5957 26.5273 74.9157 26.6062 75.2766 26.6062C75.5607 26.6062 75.8253 26.5639 76.0709 26.4793C76.3166 26.3947 76.5546 26.2792 76.7846 26.1333L77.2451 26.9754C76.9534 27.1679 76.6291 27.3295 76.2725 27.4602C75.9159 27.5908 75.5298 27.6564 75.1154 27.6564V27.656ZM73.3082 23.7448H76.3474C76.3474 23.2064 76.2265 22.7872 75.9846 22.4874C75.7428 22.1875 75.3918 22.0373 74.9314 22.0373C74.6706 22.0373 74.4249 22.1029 74.1945 22.2336C73.964 22.3643 73.7705 22.5568 73.6131 22.8105C73.4557 23.0643 73.3542 23.3756 73.3082 23.7448Z" fill="white"/>
<path d="M15.0453 11.7942C16.1596 10.6756 17.4609 10.4755 18.8726 11.0006C19.9946 11.4179 20.5741 12.3146 20.7628 13.4723C20.8121 13.7745 20.8183 14.0868 20.8187 14.3942C20.823 16.6905 20.8211 18.9868 20.8211 21.2836C20.8211 21.3858 20.8211 21.488 20.8211 21.6082H18.5847C18.5795 21.5141 18.5696 21.4148 18.5696 21.3155C18.5682 18.9797 18.571 16.6435 18.5639 14.3077C18.5629 14.0497 18.5392 13.7836 18.4719 13.536C18.3268 13.0051 17.9265 12.7228 17.3864 12.7257C16.8069 12.7285 16.4091 13.0104 16.2607 13.5521C16.2052 13.755 16.1772 13.9722 16.1767 14.1832C16.171 16.5589 16.1729 18.9346 16.1729 21.3098C16.1729 21.4038 16.1729 21.4979 16.1729 21.6091H13.91C13.91 21.5179 13.91 21.4262 13.91 21.3345C13.91 18.935 13.9105 16.5356 13.9095 14.1367C13.9095 14.0102 13.9119 13.8815 13.8872 13.7584C13.7402 13.0199 13.2788 12.6644 12.5666 12.7319C11.9743 12.7875 11.5432 13.2955 11.5314 13.9765C11.5209 14.6019 11.529 15.2278 11.529 15.8532C11.529 17.6904 11.529 19.5272 11.529 21.3644V21.612H9.28078C9.27604 21.5345 9.26751 21.4656 9.26751 21.3967C9.26751 18.9422 9.23953 16.4867 9.27746 14.0326C9.30212 12.4301 10.159 11.1731 11.7433 10.8352C12.9469 10.5786 14.0518 10.7839 14.9471 11.7101C14.9741 11.7382 15.0059 11.7615 15.0443 11.7947L15.0453 11.7942Z" fill="white"/>
<path d="M0 20.2871C0.409716 19.8532 0.807102 19.4264 1.21634 19.0111C1.24906 18.9778 1.37663 19.003 1.43733 19.0391C2.03056 19.3951 2.65035 19.6911 3.33748 19.8018C4.02461 19.9126 4.69134 19.8513 5.29359 19.4507C5.98214 18.9925 6.01486 18.168 5.30592 17.7455C4.82412 17.4585 4.27926 17.266 3.74577 17.0807C2.94199 16.8013 2.12398 16.5703 1.37663 16.1407C-0.383634 15.1284 -0.35044 12.691 1.1969 11.6008C2.19701 10.8965 3.31234 10.6794 4.49976 10.7687C5.69287 10.858 6.73186 11.3466 7.69498 12.096C7.41567 12.6183 7.13826 13.1368 6.85468 13.6676C6.4995 13.4842 6.16518 13.295 5.81711 13.1363C5.2381 12.8725 4.63207 12.6668 3.99046 12.7119C3.60541 12.739 3.20091 12.8188 2.85284 12.979C2.24301 13.2594 2.19369 14.0031 2.72243 14.4189C3.16012 14.763 3.68744 14.9136 4.20575 15.0809C5.03846 15.3494 5.87402 15.5989 6.65409 16.0166C8.7022 17.113 8.50919 19.8199 6.83144 20.9367C6.01628 21.4794 5.11576 21.7123 4.14885 21.7375C3.17482 21.7631 2.22593 21.6495 1.33015 21.2413C0.831287 21.0142 0.38316 20.7119 0 20.2875L0 20.2871Z" fill="white"/>
<path d="M30.3948 19.6949C30.1985 20.335 30.023 20.9238 29.8315 21.5074C29.813 21.564 29.693 21.6191 29.6195 21.62C28.7744 21.6281 27.9289 21.6258 27.0839 21.6258C25.8595 21.6258 24.6351 21.6258 23.4107 21.6248C22.8772 21.6243 22.6657 21.409 22.6638 20.8758C22.6538 17.9232 22.6434 14.9706 22.6334 12.0185C22.632 11.6559 22.6334 11.2929 22.6334 10.9131H24.884C24.884 11.28 24.884 11.6479 24.884 12.0157C24.8859 14.3985 24.884 16.7813 24.8926 19.1645C24.8949 19.8261 24.8527 19.6906 25.4223 19.6935C26.9549 19.7016 28.4875 19.6958 30.0202 19.6958C30.1221 19.6958 30.2236 19.6958 30.3953 19.6958L30.3948 19.6949Z" fill="white"/>
<path d="M15.0547 2.05061C19.902 2.05061 24.1699 4.53416 26.6624 8.30034H29.0528C26.3375 3.35321 21.0871 0 15.0547 0C9.02228 0 3.77232 3.35321 1.05701 8.30034H3.44749C5.93946 4.53416 10.2073 2.05061 15.0547 2.05061Z" fill="white"/>
<path d="M15.0547 29.9494C10.2657 29.9494 6.04192 27.5252 3.53716 23.8351H1.13245C3.8691 28.7081 9.0778 32 15.0547 32C21.0316 32 26.2408 28.7081 28.977 23.8351H26.5718C24.0675 27.5252 19.8433 29.9494 15.0543 29.9494H15.0547Z" fill="white"/>
</svg>
