<svg width="97" height="32" viewBox="0 0 97 32" fill="none" xmlns="http://www.w3.org/2000/svg">
<path d="M39.417 13.8119C38.8338 13.8119 38.2832 13.7002 37.7649 13.4773C37.2471 13.2544 36.7923 12.9465 36.4006 12.5544L37.1835 11.6315C37.4903 11.9314 37.8417 12.1738 38.2367 12.3582C38.6318 12.5425 39.0367 12.6352 39.4512 12.6352C39.9576 12.6352 40.3469 12.524 40.6196 12.3007C40.8918 12.0778 41.0284 11.7893 41.0284 11.4353C41.0284 11.1739 40.971 10.9643 40.8558 10.8066C40.7405 10.6488 40.5812 10.5162 40.3778 10.4083C40.1743 10.3009 39.942 10.1892 39.6812 10.0738L38.507 9.56623C38.2306 9.45075 37.9603 9.29916 37.6957 9.11049C37.4311 8.92231 37.212 8.68374 37.0394 8.39528C36.8668 8.10682 36.7805 7.75516 36.7805 7.33982C36.7805 6.89406 36.8995 6.49392 37.1375 6.13988C37.3751 5.78632 37.7052 5.50736 38.1277 5.30349C38.5497 5.09962 39.0291 4.99792 39.5664 4.99792C40.0653 4.99792 40.5371 5.09439 40.9824 5.28638C41.4272 5.47885 41.8075 5.74022 42.1219 6.07098L41.4428 6.92447C41.1739 6.68639 40.8885 6.49963 40.5855 6.36514C40.282 6.23065 39.9424 6.16317 39.5669 6.16317C39.1297 6.16317 38.784 6.26106 38.5307 6.45733C38.2775 6.6536 38.1509 6.91687 38.1509 7.24762C38.1509 7.49379 38.2159 7.69576 38.3468 7.85353C38.4772 8.01131 38.6479 8.14199 38.8589 8.24559C39.0699 8.34919 39.2866 8.44756 39.5095 8.53975L40.6722 9.03588C41.0099 9.17417 41.3091 9.34335 41.5704 9.54342C41.8312 9.74349 42.0346 9.98585 42.1807 10.27C42.3263 10.5547 42.3993 10.9087 42.3993 11.3312C42.3993 11.785 42.2803 12.1985 42.0422 12.5715C41.8042 12.9446 41.4627 13.2444 41.0175 13.4711C40.5722 13.6978 40.0392 13.8114 39.4175 13.8114L39.417 13.8119Z" fill="#972448"/>
<path d="M45.3802 13.8119C45.0193 13.8119 44.6992 13.7349 44.419 13.5809C44.1387 13.4269 43.9182 13.2117 43.757 12.9351C43.5957 12.658 43.5151 12.3354 43.5151 11.9661C43.5151 11.2818 43.8163 10.7529 44.419 10.3798C45.0212 10.0068 45.9824 9.74729 47.3026 9.60093C47.295 9.35476 47.2566 9.12808 47.1874 8.92041C47.1181 8.71274 46.9972 8.54546 46.8246 8.41857C46.652 8.29169 46.4082 8.22801 46.0934 8.22801C45.7633 8.22801 45.4447 8.29359 45.1379 8.42428C44.8306 8.55496 44.5394 8.70513 44.263 8.87431L43.7679 7.97424C43.9903 7.83595 44.2359 7.70289 44.5048 7.57601C44.7732 7.44912 45.061 7.34505 45.3683 7.26474C45.6751 7.18395 45.9938 7.14355 46.3238 7.14355C46.8535 7.14355 47.2869 7.24953 47.6246 7.461C47.9622 7.67248 48.2135 7.97852 48.3785 8.37818C48.5436 8.77832 48.6261 9.26257 48.6261 9.83188V13.6503H47.5439L47.4406 12.9237H47.3946C47.1105 13.1698 46.7999 13.3794 46.4623 13.5524C46.1247 13.7254 45.7638 13.8119 45.3802 13.8119ZM45.7828 12.7502C46.0592 12.7502 46.3162 12.6865 46.5543 12.5597C46.7919 12.4328 47.0418 12.2465 47.3026 12.0003V10.4544C46.6809 10.5238 46.1858 10.6255 45.8174 10.76C45.4489 10.8945 45.1862 11.0523 45.0288 11.2328C44.8714 11.4134 44.7926 11.6235 44.7926 11.8616C44.7926 12.1771 44.8884 12.4038 45.0805 12.5421C45.272 12.6804 45.5063 12.7497 45.7828 12.7497V12.7502Z" fill="#972448"/>
<path d="M50.5024 13.6503V7.29371H51.5846L51.6998 8.19331H51.723C51.9995 7.90104 52.2968 7.65298 52.615 7.44911C52.9332 7.24524 53.2922 7.14354 53.6914 7.14354C54.1595 7.14354 54.5317 7.24571 54.8082 7.44911C55.0847 7.65298 55.2919 7.93954 55.4299 8.30831C55.7443 7.96995 56.0686 7.691 56.4025 7.47192C56.7363 7.25284 57.0991 7.14307 57.4903 7.14307C58.1504 7.14307 58.6393 7.36024 58.9579 7.7946C59.2761 8.22942 59.4359 8.85006 59.4359 9.65794V13.6498H58.1006V9.81951C58.1006 9.27348 58.0162 8.88333 57.8473 8.64857C57.6785 8.41381 57.4135 8.2969 57.0531 8.2969C56.8382 8.2969 56.6135 8.36629 56.3797 8.50458C56.1454 8.64287 55.8941 8.85862 55.6257 9.15088V13.6503H54.3017V9.81999C54.3017 9.27396 54.2173 8.8838 54.0485 8.64904C53.8797 8.41428 53.6113 8.29738 53.2429 8.29738C53.0356 8.29738 52.8127 8.36676 52.5752 8.50505C52.3371 8.64334 52.0877 8.85909 51.8269 9.15135V13.6508H50.5029L50.5024 13.6503Z" fill="#972448"/>
<path d="M61.3579 13.6503V4.45569H62.6586V10.3741H62.7046L65.1567 7.29371H66.6301L64.4891 9.88937L66.8719 13.6503H65.4332L63.718 10.7776L62.6591 12.0003V13.6498H61.3584L61.3579 13.6503Z" fill="#972448"/>
<path d="M68.9901 13.6503L67.2863 7.2937H68.6216L69.4619 10.7315C69.5231 11.0389 69.5809 11.3412 69.6345 11.6372C69.6881 11.9333 69.7455 12.2351 69.8071 12.543H69.8645C69.9257 12.2355 69.9892 11.9333 70.0542 11.6372C70.1191 11.3412 70.1903 11.0394 70.2671 10.7315L71.1652 7.2937H72.3853L73.2949 10.7315C73.3717 11.0389 73.4447 11.3412 73.5135 11.6372C73.5827 11.9333 73.6515 12.2351 73.7207 12.543H73.7781C73.8392 12.2355 73.899 11.9333 73.9564 11.6372C74.0137 11.3412 74.073 11.0394 74.1347 10.7315L74.9522 7.2937H76.2069L74.561 13.6503H72.9724L72.1667 10.5124C72.0899 10.2125 72.0207 9.91265 71.9595 9.61278C71.8979 9.31292 71.8329 9.00117 71.7637 8.6785H71.7063C71.6371 9.00165 71.574 9.31482 71.5166 9.61849C71.4592 9.92263 71.3919 10.2244 71.3151 10.5243L70.5322 13.6507H68.9896L68.9901 13.6503Z" fill="#972448"/>
<path d="M78.844 13.8119C78.4832 13.8119 78.1631 13.7349 77.8828 13.5809C77.6026 13.4269 77.3821 13.2117 77.2208 12.9351C77.0596 12.658 76.979 12.3354 76.979 11.9661C76.979 11.2818 77.2801 10.7529 77.8828 10.3798C78.4851 10.0068 79.4463 9.74729 80.7664 9.60093C80.7589 9.35476 80.7205 9.12808 80.6512 8.92041C80.582 8.71274 80.4611 8.54546 80.2885 8.41857C80.1158 8.29169 79.8721 8.22801 79.5572 8.22801C79.2272 8.22801 78.9085 8.29359 78.6017 8.42428C78.2944 8.55496 78.0033 8.70513 77.7268 8.87431L77.2318 7.97424C77.4542 7.83595 77.6998 7.70289 77.9687 7.57601C78.2371 7.44912 78.5249 7.34505 78.8322 7.26474C79.139 7.18395 79.4577 7.14355 79.7877 7.14355C80.3174 7.14355 80.7508 7.24953 81.0884 7.461C81.4261 7.67248 81.6774 7.97852 81.8424 8.37818C82.0074 8.77832 82.0899 9.26257 82.0899 9.83188V13.6503H81.0078L80.9044 12.9237H80.8584C80.5744 13.1698 80.2638 13.3794 79.9262 13.5524C79.5885 13.7254 79.2277 13.8119 78.844 13.8119ZM79.2471 12.7502C79.5236 12.7502 79.7806 12.6865 80.0186 12.5597C80.2562 12.4328 80.5061 12.2465 80.7669 12.0003V10.4544C80.1452 10.5238 79.6502 10.6255 79.2817 10.76C78.9133 10.8945 78.6506 11.0523 78.4931 11.2328C78.3357 11.4134 78.257 11.6235 78.257 11.8616C78.257 12.1771 78.3528 12.4038 78.5448 12.5421C78.7364 12.6804 78.9707 12.7497 79.2471 12.7497V12.7502Z" fill="#972448"/>
<path d="M83.9668 13.6503V7.29372H85.0489L85.1642 8.18191H85.1874C85.479 7.89726 85.7934 7.65347 86.1315 7.44912C86.4692 7.24525 86.8528 7.14355 87.2829 7.14355C87.9582 7.14355 88.4513 7.36073 88.7619 7.79508C89.0725 8.22991 89.2281 8.85055 89.2281 9.65843V13.6503H87.9041V9.82C87.9041 9.27397 87.8197 8.88382 87.6509 8.64906C87.4821 8.4143 87.2094 8.29739 86.8333 8.29739C86.5417 8.29739 86.2823 8.36868 86.0561 8.51077C85.8295 8.65333 85.5743 8.86671 85.2908 9.15089V13.6503H83.9668Z" fill="#972448"/>
<path d="M93.3257 16.4997C92.8192 16.4997 92.3664 16.4361 91.9671 16.3092C91.5678 16.1823 91.2553 15.9955 91.0291 15.7498C90.8024 15.5037 90.6896 15.1962 90.6896 14.827C90.6896 14.5575 90.7702 14.3037 90.9314 14.0656C91.0926 13.8271 91.3188 13.6199 91.6105 13.4426V13.3965C91.4492 13.2891 91.3132 13.1485 91.2017 12.9755C91.0903 12.8025 91.0348 12.5891 91.0348 12.3354C91.0348 12.0816 91.1097 11.853 91.2591 11.6491C91.4089 11.4453 91.5716 11.2818 91.7485 11.1587V11.1126C91.5256 10.9434 91.3302 10.713 91.1614 10.4202C90.9926 10.128 90.9082 9.7934 90.9082 9.41655C90.9082 8.93991 91.0215 8.53026 91.2477 8.1881C91.4739 7.84595 91.7731 7.58647 92.1454 7.40922C92.5176 7.23243 92.9226 7.14404 93.3598 7.14404C93.5438 7.14404 93.7145 7.15735 93.8719 7.18444C94.0294 7.21152 94.1655 7.24764 94.2807 7.29421H96.5256V8.29788H95.3282C95.4434 8.42857 95.5392 8.59394 95.6161 8.79401C95.6929 8.99408 95.7313 9.21316 95.7313 9.45172C95.7313 9.91316 95.6255 10.3076 95.4145 10.6341C95.2035 10.961 94.9176 11.211 94.5567 11.384C94.1958 11.557 93.797 11.6434 93.3593 11.6434C93.2213 11.6434 93.0734 11.6263 92.916 11.5916C92.7585 11.557 92.611 11.5128 92.4726 11.4591C92.3725 11.5436 92.29 11.6358 92.225 11.7361C92.1596 11.8364 92.1274 11.9633 92.1274 12.1168C92.1274 12.3011 92.2023 12.4513 92.3517 12.5668C92.501 12.6823 92.7794 12.7398 93.1862 12.7398H94.3604C95.1049 12.7398 95.6687 12.861 96.0528 13.1033C96.4364 13.3457 96.6285 13.7358 96.6285 14.2743C96.6285 14.682 96.4943 15.0546 96.2254 15.3934C95.9565 15.7318 95.5748 16.0007 95.0802 16.2008C94.5851 16.4009 94 16.5007 93.3247 16.5007L93.3257 16.4997ZM93.5096 15.6229C93.8857 15.6229 94.2077 15.5692 94.4765 15.4614C94.7449 15.3535 94.956 15.2133 95.1096 15.0403C95.2632 14.8673 95.3401 14.6844 95.3401 14.4924C95.3401 14.2229 95.24 14.0405 95.0408 13.9445C94.8412 13.848 94.5496 13.8005 94.1659 13.8005H93.2104C93.0568 13.8005 92.9112 13.7929 92.7727 13.7772C92.6348 13.7615 92.4963 13.7387 92.3583 13.7078C92.1743 13.8461 92.0396 13.9963 91.9552 14.1578C91.8708 14.3194 91.8286 14.4767 91.8286 14.6307C91.8286 14.9382 91.9785 15.1805 92.2777 15.3573C92.5769 15.5341 92.9876 15.6225 93.5096 15.6225V15.6229ZM93.3603 10.7776C93.5751 10.7776 93.7747 10.7239 93.9587 10.616C94.1427 10.5086 94.2888 10.3527 94.3959 10.1489C94.5031 9.945 94.5572 9.70073 94.5572 9.41608C94.5572 9.13142 94.5036 8.89096 94.3959 8.69517C94.2883 8.4989 94.1446 8.3473 93.9644 8.23943C93.7842 8.13203 93.5827 8.07785 93.3598 8.07785C93.1369 8.07785 92.9359 8.13155 92.7552 8.23943C92.575 8.3473 92.4308 8.4989 92.3237 8.69517C92.216 8.89143 92.1624 9.13189 92.1624 9.41608C92.1624 9.70026 92.2179 9.945 92.3294 10.1489C92.4403 10.3527 92.5864 10.5086 92.7666 10.616C92.9468 10.7239 93.1445 10.7776 93.3593 10.7776H93.3603Z" fill="#972448"/>
<path d="M36.9995 27.494V18.9918H38.3349V26.352H41.9265V27.494H36.9995Z" fill="#972448"/>
<path d="M44.8045 27.6556C44.4436 27.6556 44.1235 27.5786 43.8433 27.4246C43.563 27.2706 43.3425 27.0553 43.1813 26.7788C43.0201 26.5017 42.9395 26.179 42.9395 25.8098C42.9395 25.1255 43.2406 24.5966 43.8433 24.2235C44.4455 23.8505 45.4067 23.591 46.7269 23.4446C46.7193 23.1984 46.6809 22.9718 46.6117 22.7641C46.5424 22.5564 46.4215 22.3891 46.2489 22.2623C46.0763 22.1354 45.8326 22.0717 45.5177 22.0717C45.1876 22.0717 44.869 22.1373 44.5622 22.268C44.2549 22.3987 43.9637 22.5488 43.6873 22.718L43.1922 21.8179C43.4146 21.6796 43.6602 21.5466 43.9291 21.4197C44.1975 21.2928 44.4854 21.1887 44.7926 21.1084C45.0994 21.0276 45.4181 20.9872 45.7481 20.9872C46.2778 20.9872 46.7112 21.0932 47.0489 21.3047C47.3865 21.5162 47.6378 21.8222 47.8029 22.2219C47.9679 22.622 48.0504 23.1063 48.0504 23.6756V27.494H46.9683L46.8649 26.7674H46.8189C46.5348 27.0135 46.2242 27.2231 45.8866 27.3961C45.549 27.5691 45.1881 27.6556 44.8045 27.6556ZM45.2076 26.5939C45.484 26.5939 45.741 26.5302 45.9791 26.4033C46.2167 26.2765 46.4666 26.0902 46.7274 25.844V24.2981C46.1057 24.3675 45.6106 24.4692 45.2422 24.6037C44.8737 24.7382 44.611 24.8959 44.4536 25.0765C44.2961 25.2571 44.2174 25.4672 44.2174 25.7052C44.2174 26.0208 44.3132 26.2475 44.5053 26.3858C44.6968 26.5241 44.9311 26.5934 45.2076 26.5934V26.5939Z" fill="#972448"/>
<path d="M52.8744 27.6556C52.5904 27.6556 52.2949 27.5824 51.9881 27.4365C51.6809 27.2906 51.3973 27.0905 51.1365 26.8367H51.0905L50.9752 27.4945H49.9277V18.2999H51.2517V20.734L51.2057 21.8184C51.4822 21.5722 51.7833 21.3726 52.1095 21.2187C52.4358 21.0647 52.7635 20.9877 53.094 20.9877C53.6312 20.9877 54.086 21.1203 54.4583 21.386C54.8305 21.6511 55.1145 22.0261 55.3099 22.5108C55.5053 22.9955 55.6034 23.5644 55.6034 24.2183C55.6034 24.9411 55.4749 25.5603 55.2179 26.0754C54.9609 26.5906 54.6252 26.9831 54.2107 27.2521C53.7963 27.5211 53.351 27.656 52.8754 27.656L52.8744 27.6556ZM52.6212 26.5364C52.928 26.5364 53.2026 26.448 53.4444 26.2712C53.6863 26.0945 53.8778 25.835 54.0201 25.4923C54.1619 25.1502 54.233 24.7329 54.233 24.2406C54.233 23.7949 54.1813 23.4118 54.0775 23.093C53.9736 22.7741 53.8143 22.5279 53.5995 22.3545C53.3847 22.1815 53.1006 22.095 52.7478 22.095C52.5022 22.095 52.2565 22.1582 52.0109 22.2855C51.7653 22.4124 51.512 22.6068 51.2512 22.8682V25.9714C51.4888 26.179 51.7287 26.3254 51.9706 26.4095C52.2124 26.4941 52.4291 26.5364 52.6212 26.5364Z" fill="#972448"/>
<path d="M58.9869 27.6555C58.5108 27.6555 58.1328 27.5615 57.8531 27.3728C57.5728 27.1846 57.3713 26.9228 57.2489 26.5882C57.1261 26.2536 57.0649 25.8635 57.0649 25.4173V22.21H56.144V21.2177L57.1342 21.1369L57.284 19.3834H58.3889V21.1369H60.0349V22.21H58.3889V25.4287C58.3889 25.8055 58.4619 26.0921 58.6075 26.2879C58.7531 26.4841 58.9911 26.582 59.3212 26.582C59.4284 26.582 59.5436 26.5668 59.6664 26.5359C59.7892 26.505 59.8964 26.4708 59.9889 26.4323L60.2307 27.4127C60.0619 27.4664 59.8717 27.5201 59.6607 27.5743C59.4497 27.628 59.2249 27.6551 58.9874 27.6551L58.9869 27.6555Z" fill="#972448"/>
<path d="M61.4156 27.494V21.1374H62.4978L62.613 22.2794H62.6362C62.8667 21.8716 63.1389 21.5547 63.4538 21.3275C63.7682 21.1008 64.0982 20.9872 64.4439 20.9872C64.5975 20.9872 64.7279 20.9986 64.8351 21.0219C64.9423 21.0447 65.0461 21.0756 65.1457 21.1141L64.9157 22.2794C64.8005 22.2409 64.6971 22.2143 64.6051 22.1986C64.5131 22.1834 64.4017 22.1753 64.2713 22.1753C64.0181 22.1753 63.7492 22.2775 63.4656 22.4809C63.1816 22.6847 62.9397 23.0402 62.7406 23.5482V27.4935H61.4166L61.4156 27.494Z" fill="#972448"/>
<path d="M68.5989 27.6556C68.0232 27.6556 67.5011 27.523 67.0335 27.2573C66.5655 26.9921 66.1932 26.6115 65.9168 26.1154C65.6403 25.6192 65.5023 25.0214 65.5023 24.3214C65.5023 23.8063 65.5829 23.3429 65.7442 22.9314C65.9054 22.5198 66.124 22.1701 66.4005 21.8816C66.6769 21.5932 66.9875 21.3722 67.3327 21.2182C67.678 21.0642 68.0308 20.9872 68.3916 20.9872C68.9517 20.9872 69.4235 21.1122 69.8076 21.3622C70.1912 21.6122 70.4829 21.9619 70.6825 22.412C70.8821 22.862 70.9817 23.3866 70.9817 23.9868C70.9817 24.1175 70.976 24.2425 70.9646 24.3618C70.9533 24.4811 70.9357 24.5828 70.913 24.6674H66.8031C66.8415 25.0675 66.9467 25.4116 67.1198 25.7C67.2924 25.9885 67.5186 26.2118 67.7989 26.3691C68.0791 26.5269 68.3992 26.6058 68.7601 26.6058C69.0441 26.6058 69.3087 26.5635 69.5544 26.4789C69.8 26.3943 70.0381 26.2788 70.268 26.1329L70.7285 26.975C70.4369 27.1675 70.1125 27.3291 69.7559 27.4598C69.3993 27.5904 69.0133 27.656 68.5989 27.656V27.6556ZM66.7917 23.7445H69.8308C69.8308 23.2061 69.7099 22.7869 69.4681 22.487C69.2262 22.1872 68.8753 22.037 68.4149 22.037C68.1541 22.037 67.9084 22.1026 67.678 22.2333C67.4475 22.364 67.254 22.5564 67.0966 22.8102C66.9391 23.064 66.8377 23.3752 66.7917 23.7445Z" fill="#972448"/>
<path d="M75.1145 27.6556C74.5388 27.6556 74.0167 27.523 73.5491 27.2573C73.0811 26.9921 72.7089 26.6115 72.4324 26.1154C72.1559 25.6192 72.0179 25.0214 72.0179 24.3214C72.0179 23.8063 72.0986 23.3429 72.2598 22.9314C72.421 22.5198 72.6396 22.1701 72.9161 21.8816C73.1925 21.5932 73.5031 21.3722 73.8484 21.2182C74.1936 21.0642 74.5464 20.9872 74.9073 20.9872C75.4673 20.9872 75.9391 21.1122 76.3232 21.3622C76.7068 21.6122 76.9985 21.9619 77.1981 22.412C77.3978 22.862 77.4973 23.3866 77.4973 23.9868C77.4973 24.1175 77.4917 24.2425 77.4803 24.3618C77.4689 24.4811 77.4513 24.5828 77.4286 24.6674H73.3187C73.3571 25.0675 73.4624 25.4116 73.6354 25.7C73.8081 25.9885 74.0343 26.2118 74.3145 26.3691C74.5948 26.5269 74.9148 26.6058 75.2757 26.6058C75.5598 26.6058 75.8244 26.5635 76.07 26.4789C76.3156 26.3943 76.5537 26.2788 76.7837 26.1329L77.2441 26.975C76.9525 27.1675 76.6281 27.3291 76.2715 27.4598C75.9149 27.5904 75.5289 27.656 75.1145 27.656V27.6556ZM73.3073 23.7445H76.3465C76.3465 23.2061 76.2255 22.7869 75.9837 22.487C75.7418 22.1872 75.3909 22.037 74.9305 22.037C74.6697 22.037 74.424 22.1026 74.1936 22.2333C73.9631 22.364 73.7696 22.5564 73.6122 22.8102C73.4548 23.064 73.3533 23.3752 73.3073 23.7445Z" fill="#972448"/>
<path d="M15.0449 11.794C16.1593 10.6754 17.4605 10.4753 18.8722 11.0004C19.9942 11.4177 20.5736 12.3144 20.7624 13.4721C20.8117 13.7743 20.8179 14.0865 20.8183 14.394C20.8226 16.6903 20.8207 18.9865 20.8207 21.2833C20.8207 21.3854 20.8207 21.4876 20.8207 21.6079H18.5844C18.5792 21.5138 18.5692 21.4144 18.5692 21.3151C18.5678 18.9794 18.5706 16.6432 18.5635 14.3075C18.5626 14.0495 18.5388 13.7833 18.4715 13.5357C18.3264 13.0049 17.9262 12.7226 17.3861 12.7255C16.8066 12.7283 16.4087 13.0101 16.2603 13.5519C16.2048 13.7548 16.1768 13.972 16.1764 14.183C16.1707 16.5586 16.1726 18.9343 16.1726 21.3094C16.1726 21.4035 16.1726 21.4976 16.1726 21.6088H13.9097C13.9097 21.5176 13.9097 21.4258 13.9097 21.3341C13.9097 18.9347 13.9102 16.5353 13.9092 14.1364C13.9092 14.01 13.9116 13.8812 13.8869 13.7581C13.7399 13.0196 13.2785 12.6642 12.5663 12.7317C11.974 12.7873 11.543 13.2953 11.5311 13.9763C11.5207 14.6017 11.5287 15.2275 11.5287 15.8529C11.5287 17.6901 11.5287 19.5269 11.5287 21.3641V21.6117H9.28054C9.2758 21.5342 9.26726 21.4653 9.26726 21.3964C9.26726 18.9419 9.23928 16.4864 9.27722 14.0323C9.30188 12.4299 10.1588 11.1729 11.7431 10.8351C12.9466 10.5784 14.0515 10.7837 14.9468 11.7099C14.9738 11.738 15.0056 11.7613 15.044 11.7945L15.0449 11.794Z" fill="#972448"/>
<path d="M0 20.2867C0.40971 19.8529 0.807091 19.4261 1.21633 19.0108C1.24905 18.9775 1.37661 19.0027 1.4373 19.0388C2.03053 19.3947 2.65031 19.6908 3.33743 19.8015C4.02455 19.9123 4.69127 19.851 5.29351 19.4503C5.98205 18.9922 6.01477 18.1677 5.30584 17.7452C4.82405 17.4582 4.27919 17.2657 3.74572 17.0804C2.94194 16.801 2.12395 16.57 1.37661 16.1404C-0.383629 15.1282 -0.350435 12.6908 1.19688 11.6006C2.19697 10.8964 3.3123 10.6792 4.4997 10.7685C5.69279 10.8579 6.73176 11.3464 7.69486 12.0958C7.41556 12.6181 7.13815 13.1365 6.85458 13.6674C6.4994 13.4839 6.16509 13.2948 5.81703 13.1361C5.23803 12.8723 4.632 12.6666 3.9904 12.7117C3.60535 12.7388 3.20086 12.8186 2.85279 12.9788C2.24297 13.2592 2.19366 14.0029 2.72239 14.4187C3.16008 14.7628 3.68739 14.9134 4.20569 15.0807C5.03839 15.3492 5.87393 15.5987 6.65399 16.0164C8.70207 17.1127 8.50907 19.8196 6.83134 20.9364C6.01619 21.4791 5.11568 21.7119 4.14879 21.7371C3.17478 21.7628 2.2259 21.6492 1.33013 21.241C0.831275 21.0138 0.383155 20.7116 0 20.2872L0 20.2867Z" fill="#972448"/>
<path d="M30.3945 19.6946C30.1981 20.3347 30.0227 20.9235 29.8311 21.5071C29.8126 21.5636 29.6926 21.6188 29.6191 21.6197C28.7741 21.6278 27.9286 21.6254 27.0836 21.6254C25.8592 21.6254 24.6348 21.6254 23.4104 21.6245C22.8769 21.624 22.6654 21.4087 22.6635 20.8755C22.6536 17.923 22.6432 14.9704 22.6332 12.0183C22.6318 11.6557 22.6332 11.2927 22.6332 10.913H24.8838C24.8838 11.2798 24.8838 11.6477 24.8838 12.0155C24.8857 14.3982 24.8838 16.781 24.8923 19.1642C24.8947 19.8257 24.8525 19.6903 25.422 19.6932C26.9546 19.7012 28.4872 19.6955 30.0198 19.6955C30.1218 19.6955 30.2233 19.6955 30.3949 19.6955L30.3945 19.6946Z" fill="#972448"/>
<path d="M15.0545 2.05058C19.9018 2.05058 24.1696 4.53409 26.662 8.30022H29.0524C26.3372 3.35316 21.0868 0 15.0545 0C9.02216 0 3.77228 3.35316 1.05701 8.30022H3.44746C5.93938 4.53409 10.2072 2.05058 15.0545 2.05058Z" fill="url(#paint0_linear_116_395)"/>
<path d="M15.0545 29.9489C10.2656 29.9489 6.04185 27.5248 3.53712 23.8347H1.13245C3.86906 28.7076 9.07769 31.9995 15.0545 31.9995C21.0314 31.9995 26.2405 28.7076 28.9766 23.8347H26.5714C24.0672 27.5248 19.843 29.9489 15.054 29.9489H15.0545Z" fill="url(#paint1_linear_116_395)"/>
<defs>
<linearGradient id="paint0_linear_116_395" x1="1.05701" y1="4.15011" x2="29.0524" y2="4.15011" gradientUnits="userSpaceOnUse">
<stop stop-color="#972448"/>
<stop offset="0.15" stop-color="#98274A"/>
<stop offset="0.29" stop-color="#9E3252"/>
<stop offset="0.41" stop-color="#A74460"/>
<stop offset="0.54" stop-color="#B45E74"/>
<stop offset="0.65" stop-color="#C47C8B"/>
<stop offset="0.69" stop-color="#C17687" stop-opacity="0.94"/>
<stop offset="0.75" stop-color="#BA697C" stop-opacity="0.79"/>
<stop offset="0.84" stop-color="#AF536C" stop-opacity="0.54"/>
<stop offset="0.94" stop-color="#9F3555" stop-opacity="0.2"/>
<stop offset="1" stop-color="#972448" stop-opacity="0"/>
</linearGradient>
<linearGradient id="paint1_linear_116_395" x1="1.13245" y1="27.9173" x2="28.9771" y2="27.9173" gradientUnits="userSpaceOnUse">
<stop stop-color="#972448" stop-opacity="0"/>
<stop offset="0.06" stop-color="#9F3555" stop-opacity="0.2"/>
<stop offset="0.16" stop-color="#AF536C" stop-opacity="0.54"/>
<stop offset="0.25" stop-color="#BA697C" stop-opacity="0.79"/>
<stop offset="0.31" stop-color="#C17687" stop-opacity="0.94"/>
<stop offset="0.35" stop-color="#C47C8B"/>
<stop offset="0.46" stop-color="#B45E74"/>
<stop offset="0.59" stop-color="#A74460"/>
<stop offset="0.71" stop-color="#9E3252"/>
<stop offset="0.85" stop-color="#98274A"/>
<stop offset="1" stop-color="#972448"/>
</linearGradient>
</defs>
</svg>
